<svg xmlns="http://www.w3.org/2000/svg" viewBox="0 0 15476 212" width="15476" height="212"><path d="M203.194 109.022c-.698 25.438-11.443 49.592-29.868 67.144-18.426 17.552-43.073 27.112-68.514 26.575-25.442-.537-49.664-11.128-67.332-29.442-17.669-18.313-27.385-42.899-27.01-68.344.375-25.444 10.813-49.733 29.014-67.517C57.685 19.653 82.208 9.781 107.655 9.995c25.446.214 49.8 10.497 67.7 28.584 17.9 18.088 27.927 42.548 27.875 67.996" fill="#ffffff" stroke="#ffffff" stroke-width="7.228911" stroke-linecap="round" stroke-linejoin="round"/><path d="M132.337 120.568l42.503-48.879-23.377 42.503z" fill="#373e48"/><path d="M132.337 120.568l44.628-31.878-27.627 27.628z" fill="#535d6c"/><path d="M132.337 120.568l36.128-6.376-25.502 8.501z" fill="#939dac"/><path d="M81.333 120.568L38.83 71.689l23.376 42.503z" fill="#373e48"/><path d="M81.333 120.568L36.704 88.69l27.628 27.628z" fill="#535d6c"/><path d="M81.758 120.568l-36.128-6.376 25.502 8.501z" fill="#939dac"/><g fill="#3f51b5"><path d="M140.837 61.063l-29.752 72.256-8.501 21.252 4.251 4.25 12.751-8.501 25.502-85.006z"/><path d="M72.832 61.063l29.752 72.256 8.501 21.252-4.25 4.25-12.751-8.501-25.502-85.006z"/></g><path d="M415.194 109.022c-.698 25.438-11.443 49.592-29.868 67.144-18.426 17.552-43.073 27.112-68.514 26.575-25.442-.537-49.664-11.128-67.332-29.442-17.669-18.313-27.385-42.899-27.01-68.344.375-25.444 10.813-49.733 29.014-67.517 18.201-17.785 42.724-27.657 68.171-27.443 25.446.214 49.8 10.497 67.7 28.584 17.9 18.088 27.927 42.548 27.875 67.996" fill="#ffffff" stroke="#ffffff" stroke-width="7.228911" stroke-linecap="round" stroke-linejoin="round"/><path d="M344.336 120.567l42.554-48.795-23.427 42.449z" fill="#373e48"/><path d="M344.337 120.568l44.628-31.878-27.627 27.628z" fill="#535d6c"/><path d="M344.337 120.568l36.128-6.376-25.502 8.501z" fill="#939dac"/><path d="M293.334 120.568L250.78 71.772l23.426 42.45z" fill="#373e48"/><path d="M293.333 120.568L248.704 88.69l27.628 27.628z" fill="#535d6c"/><path d="M293.758 120.568l-36.128-6.376 25.502 8.501z" fill="#939dac"/><g fill="#3f51b5"><path d="M352.837 61.063l-29.752 72.256-8.501 21.252 4.251 4.25 12.751-8.501 25.502-85.006z"/><path d="M284.832 61.063l29.752 72.256 8.501 21.252-4.25 4.25-12.751-8.501-25.502-85.006z"/></g><path d="M627.194 109.022c-.698 25.438-11.443 49.592-29.868 67.144-18.426 17.552-43.073 27.112-68.514 26.575-25.442-.537-49.664-11.128-67.332-29.442-17.669-18.313-27.385-42.899-27.01-68.344.375-25.444 10.813-49.733 29.014-67.517 18.201-17.785 42.724-27.657 68.171-27.443 25.446.214 49.8 10.497 67.7 28.584 17.9 18.088 27.927 42.548 27.875 67.996" fill="#ffffff" stroke="#ffffff" stroke-width="7.228911" stroke-linecap="round" stroke-linejoin="round"/><path d="M556.335 120.563l42.721-48.517-23.594 42.272z" fill="#373e48"/><path d="M556.337 120.568l44.628-31.878-27.627 27.628z" fill="#535d6c"/><path d="M556.337 120.568l36.128-6.376-25.502 8.501z" fill="#939dac"/><path d="M505.336 120.566l-42.721-48.52 23.593 42.275z" fill="#373e48"/><path d="M505.333 120.568L460.704 88.69l27.628 27.628z" fill="#535d6c"/><path d="M505.758 120.568l-36.128-6.376 25.502 8.501z" fill="#939dac"/><g fill="#3f51b5"><path d="M564.837 61.063l-29.752 72.256-8.501 21.252 4.251 4.25 12.751-8.501 25.502-85.006z"/><path d="M496.832 61.063l29.752 72.256 8.501 21.252-4.25 4.25-12.751-8.501-25.502-85.006z"/></g><path d="M839.194 109.022c-.698 25.438-11.443 49.592-29.868 67.144-18.426 17.552-43.073 27.112-68.514 26.575-25.442-.537-49.664-11.128-67.332-29.442-17.669-18.313-27.385-42.899-27.01-68.344.375-25.444 10.813-49.733 29.014-67.517 18.201-17.785 42.724-27.657 68.171-27.443 25.446.214 49.8 10.497 67.7 28.584 17.9 18.088 27.927 42.548 27.875 67.996" fill="#ffffff" stroke="#ffffff" stroke-width="7.228911" stroke-linecap="round" stroke-linejoin="round"/><path d="M768.331 120.555l43.035-47.999-23.905 41.943z" fill="#373e48"/><path d="M768.337 120.568l44.628-31.878-27.627 27.628z" fill="#535d6c"/><path d="M768.337 120.568l36.128-6.376-25.502 8.501z" fill="#939dac"/><path d="M717.341 120.563l-43.033-48.007 23.902 41.948z" fill="#373e48"/><path d="M717.333 120.568L672.704 88.69l27.628 27.628z" fill="#535d6c"/><path d="M717.758 120.568l-36.128-6.376 25.502 8.501z" fill="#939dac"/><g fill="#3f51b5"><path d="M776.837 61.063l-29.752 72.256-8.501 21.252 4.251 4.25 12.751-8.501 25.502-85.006z"/><path d="M708.832 61.063l29.752 72.256 8.501 21.252-4.25 4.25-12.751-8.501-25.502-85.006z"/></g><path d="M1051.194 109.022c-.698 25.438-11.443 49.592-29.868 67.144-18.426 17.552-43.073 27.112-68.514 26.575-25.442-.537-49.664-11.128-67.332-29.442-17.669-18.313-27.385-42.899-27.01-68.344.375-25.444 10.813-49.733 29.014-67.517 18.201-17.785 42.724-27.657 68.171-27.443 25.446.214 49.8 10.497 67.7 28.584 17.9 18.088 27.927 42.548 27.875 67.996" fill="#ffffff" stroke="#ffffff" stroke-width="7.228911" stroke-linecap="round" stroke-linejoin="round"/><path d="M980.326 120.543l43.529-47.18-24.396 41.422z" fill="#373e48"/><path d="M980.337 120.568l44.628-31.878-27.627 27.628z" fill="#535d6c"/><path d="M980.337 120.568l36.128-6.376-25.502 8.501z" fill="#939dac"/><path d="M929.348 120.558l-43.525-47.195 24.391 41.432z" fill="#373e48"/><path d="M929.333 120.568L884.704 88.69l27.628 27.628z" fill="#535d6c"/><path d="M929.758 120.568l-36.128-6.376 25.502 8.501z" fill="#939dac"/><g fill="#3f51b5"><path d="M988.837 61.063l-29.752 72.256-8.501 21.252 4.251 4.25 12.751-8.501 25.502-85.006z"/><path d="M920.832 61.063l29.752 72.256 8.501 21.252-4.25 4.25-12.751-8.501-25.502-85.006z"/></g><path d="M1263.194 109.022c-.698 25.438-11.443 49.592-29.868 67.144-18.426 17.552-43.073 27.112-68.514 26.575-25.442-.537-49.664-11.128-67.332-29.442-17.669-18.313-27.385-42.899-27.01-68.344.375-25.444 10.813-49.733 29.014-67.517 18.201-17.785 42.724-27.657 68.171-27.443 25.446.214 49.8 10.497 67.7 28.584 17.9 18.088 27.927 42.548 27.875 67.996" fill="#ffffff" stroke="#ffffff" stroke-width="7.228911" stroke-linecap="round" stroke-linejoin="round"/><path d="M1192.319 120.526l44.251-45.984-25.115 40.661z" fill="#373e48"/><path d="M1192.337 120.568l44.628-31.878-27.627 27.628z" fill="#535d6c"/><path d="M1192.337 120.568l36.128-6.376-25.502 8.501z" fill="#939dac"/><path d="M1141.359 120.551l-44.245-46.009 25.105 40.678z" fill="#373e48"/><path d="M1141.333 120.568l-44.629-31.878 27.628 27.628z" fill="#535d6c"/><path d="M1141.758 120.568l-36.128-6.376 25.502 8.501z" fill="#939dac"/><g fill="#3f51b5"><path d="M1200.837 61.063l-29.752 72.256-8.501 21.252 4.251 4.25 12.751-8.501 25.502-85.006z"/><path d="M1132.832 61.063l29.752 72.256 8.501 21.252-4.25 4.25-12.751-8.501-25.502-85.006z"/></g><path d="M1475.194 109.022c-.698 25.438-11.443 49.592-29.868 67.144-18.426 17.552-43.073 27.112-68.514 26.575-25.442-.537-49.664-11.128-67.332-29.442-17.669-18.313-27.385-42.899-27.01-68.344.375-25.444 10.813-49.733 29.014-67.517 18.201-17.785 42.724-27.657 68.171-27.443 25.446.214 49.8 10.497 67.7 28.584 17.9 18.088 27.927 42.548 27.875 67.996" fill="#ffffff" stroke="#ffffff" stroke-width="7.228911" stroke-linecap="round" stroke-linejoin="round"/><path d="M1404.308 120.502l45.255-44.322-26.112 39.603z" fill="#373e48"/><path d="M1404.337 120.568l44.628-31.878-27.627 27.628z" fill="#535d6c"/><path d="M1404.337 120.568l36.128-6.376-25.502 8.501z" fill="#939dac"/><path d="M1353.374 120.542l-45.245-44.362 26.098 39.63z" fill="#373e48"/><path d="M1353.333 120.568l-44.629-31.878 27.628 27.628z" fill="#535d6c"/><path d="M1353.758 120.568l-36.128-6.376 25.502 8.501z" fill="#939dac"/><g fill="#3f51b5"><path d="M1412.837 61.063l-29.752 72.256-8.501 21.252 4.251 4.25 12.751-8.501 25.502-85.006z"/><path d="M1344.832 61.063l29.752 72.256 8.501 21.252-4.25 4.25-12.751-8.501-25.502-85.006z"/></g><path d="M1687.194 109.022c-.698 25.438-11.443 49.592-29.868 67.144-18.426 17.552-43.073 27.112-68.514 26.575-25.442-.537-49.664-11.128-67.332-29.442-17.669-18.313-27.385-42.899-27.01-68.344.375-25.444 10.813-49.733 29.014-67.517 18.201-17.785 42.724-27.657 68.171-27.443 25.446.214 49.8 10.497 67.7 28.584 17.9 18.088 27.927 42.548 27.875 67.996" fill="#ffffff" stroke="#ffffff" stroke-width="7.228911" stroke-linecap="round" stroke-linejoin="round"/><path d="M1616.295 120.471l46.58-42.129-27.43 38.207z" fill="#373e48"/><path d="M1616.337 120.568l44.653-31.798-27.654 27.575z" fill="#535d6c"/><path d="M1616.337 120.568l36.128-6.376-25.502 8.501z" fill="#939dac"/><path d="M1565.394 120.529l-46.566-42.187 27.409 38.248z" fill="#373e48"/><path d="M1565.333 120.566l-44.654-31.796 27.656 27.574z" fill="#535d6c"/><path d="M1565.758 120.568l-36.128-6.376 25.502 8.501z" fill="#939dac"/><g fill="#3f51b5"><path d="M1624.837 61.063l-29.752 72.256-8.501 21.252 4.251 4.25 12.751-8.501 25.502-85.006z"/><path d="M1556.832 61.063l29.752 72.256 8.501 21.252-4.25 4.25-12.751-8.501-25.502-85.006z"/></g><path d="M1899.194 109.022c-.698 25.438-11.443 49.592-29.868 67.144-18.426 17.552-43.073 27.112-68.514 26.575-25.442-.537-49.664-11.128-67.332-29.442-17.669-18.313-27.385-42.899-27.01-68.344.375-25.444 10.813-49.733 29.014-67.517 18.201-17.785 42.724-27.657 68.171-27.443 25.446.214 49.8 10.497 67.7 28.584 17.9 18.088 27.927 42.548 27.875 67.996" fill="#ffffff" stroke="#ffffff" stroke-width="7.228911" stroke-linecap="round" stroke-linejoin="round"/><path d="M1828.277 120.431l48.216-39.42-29.055 36.483z" fill="#373e48"/><path d="M1828.337 120.566l44.736-31.531-27.744 27.397z" fill="#535d6c"/><path d="M1828.337 120.568l36.128-6.376-25.502 8.501z" fill="#939dac"/><path d="M1777.418 120.514l-48.195-39.503 29.026 36.54z" fill="#373e48"/><path d="M1777.335 120.561l-44.738-31.526 27.746 27.393z" fill="#535d6c"/><path d="M1777.758 120.568l-36.128-6.376 25.502 8.501z" fill="#939dac"/><g fill="#3f51b5"><path d="M1836.837 61.063l-29.752 72.256-8.501 21.252 4.251 4.25 12.751-8.501 25.502-85.006z"/><path d="M1768.832 61.063l29.752 72.256 8.501 21.252-4.25 4.25-12.751-8.501-25.502-85.006z"/></g><path d="M2111.194 109.022c-.698 25.438-11.443 49.592-29.868 67.144-18.426 17.552-43.073 27.112-68.514 26.575-25.442-.537-49.664-11.128-67.332-29.442-17.669-18.313-27.385-42.899-27.01-68.344.375-25.444 10.813-49.733 29.014-67.517 18.201-17.785 42.724-27.657 68.171-27.443 25.446.214 49.8 10.497 67.7 28.584 17.9 18.088 27.927 42.548 27.875 67.996" fill="#ffffff" stroke="#ffffff" stroke-width="7.228911" stroke-linecap="round" stroke-linejoin="round"/><path d="M2040.258 120.388l50.049-36.385-30.877 34.551z" fill="#373e48"/><path d="M2040.336 120.564l44.892-31.036-27.911 27.067z" fill="#535d6c"/><path d="M2040.337 120.568l36.128-6.376-25.502 8.501z" fill="#939dac"/><path d="M1989.445 120.496l-50.022-36.493 30.84 34.627z" fill="#373e48"/><path d="M1989.338 120.55l-44.893-31.022 27.913 27.057z" fill="#535d6c"/><path d="M1989.758 120.568l-36.128-6.376 25.502 8.501z" fill="#939dac"/><g fill="#3f51b5"><path d="M2048.837 61.063l-29.752 72.256-8.501 21.252 4.251 4.25 12.751-8.501 25.502-85.006z"/><path d="M1980.832 61.063l29.752 72.256 8.501 21.252-4.25 4.25-12.751-8.501-25.502-85.006z"/></g><g><path d="M2323.194 109.022c-.698 25.438-11.443 49.592-29.868 67.144-18.426 17.552-43.073 27.112-68.514 26.575-25.442-.537-49.664-11.128-67.332-29.442-17.669-18.313-27.385-42.899-27.01-68.344.375-25.444 10.813-49.733 29.014-67.517 18.201-17.785 42.724-27.657 68.171-27.443 25.446.214 49.8 10.497 67.7 28.584 17.9 18.088 27.927 42.548 27.875 67.996" fill="#ffffff" stroke="#ffffff" stroke-width="7.228911" stroke-linecap="round" stroke-linejoin="round"/><path d="M2252.239 120.343l51.896-33.325-32.713 32.605z" fill="#373e48"/><path d="M2252.336 120.561l45.138-30.253-28.176 26.546z" fill="#535d6c"/><path d="M2252.337 120.568l36.128-6.376-25.502 8.501z" fill="#939dac"/><path d="M2201.473 120.478l-51.864-33.46 32.668 32.699z" fill="#373e48"/><path d="M2201.342 120.533l-45.139-30.225 28.18 26.526z" fill="#535d6c"/><path d="M2201.758 120.568l-36.128-6.376 25.502 8.501z" fill="#939dac"/><g fill="#3f51b5"><path d="M2260.837 61.063l-29.752 72.256-8.501 21.252 4.251 4.25 12.751-8.501 25.502-85.006z"/><path d="M2192.832 61.063l29.752 72.256 8.501 21.252-4.25 4.25-12.751-8.501-25.502-85.006z"/></g></g><g><path d="M2535.194 109.022c-.698 25.438-11.443 49.592-29.868 67.144-18.426 17.552-43.073 27.112-68.514 26.575-25.442-.537-49.664-11.128-67.332-29.442-17.669-18.313-27.385-42.899-27.01-68.344.375-25.444 10.813-49.733 29.014-67.517 18.201-17.785 42.724-27.657 68.171-27.443 25.446.214 49.8 10.497 67.7 28.584 17.9 18.088 27.927 42.548 27.875 67.996" fill="#ffffff" stroke="#ffffff" stroke-width="7.228911" stroke-linecap="round" stroke-linejoin="round"/><path d="M2464.221 120.303l53.606-30.495-34.413 30.803z" fill="#373e48"/><path d="M2464.335 120.555l45.497-29.108-28.562 25.784z" fill="#535d6c"/><path d="M2464.337 120.568l36.128-6.376-25.502 8.501z" fill="#939dac"/><path d="M2413.498 120.462l-53.567-30.654 34.359 30.914z" fill="#373e48"/><path d="M2413.348 120.508l-45.497-29.061 28.568 25.75z" fill="#535d6c"/><path d="M2413.758 120.568l-36.128-6.376 25.502 8.501z" fill="#939dac"/><g fill="#3f51b5"><path d="M2472.837 61.063l-29.752 72.256-8.501 21.252 4.251 4.25 12.751-8.501 25.502-85.006z"/><path d="M2404.832 61.063l29.752 72.256 8.501 21.252-4.25 4.25-12.751-8.501-25.502-85.006z"/></g></g><g><path d="M2747.194 109.022c-.698 25.438-11.443 49.592-29.868 67.144-18.426 17.552-43.073 27.112-68.514 26.575-25.442-.537-49.664-11.128-67.332-29.442-17.669-18.313-27.385-42.899-27.01-68.344.375-25.444 10.813-49.733 29.014-67.517 18.201-17.785 42.724-27.657 68.171-27.443 25.446.214 49.8 10.497 67.7 28.584 17.9 18.088 27.927 42.548 27.875 67.996" fill="#ffffff" stroke="#ffffff" stroke-width="7.228911" stroke-linecap="round" stroke-linejoin="round"/><path d="M2676.206 120.267l55.108-28.007-35.906 29.22z" fill="#373e48"/><path d="M2676.333 120.548l45.996-27.518-29.099 24.725z" fill="#535d6c"/><path d="M2676.337 120.568l36.128-6.376-25.502 8.501z" fill="#939dac"/><path d="M2625.521 120.448l-55.065-28.188 35.846 29.345z" fill="#373e48"/><path d="M2625.357 120.474l-45.996-27.444 29.108 24.672z" fill="#535d6c"/><path d="M2625.758 120.568l-36.128-6.376 25.502 8.501z" fill="#939dac"/><g fill="#3f51b5"><path d="M2684.837 61.063l-29.752 72.256-8.501 21.252 4.251 4.25 12.751-8.501 25.502-85.006z"/><path d="M2616.832 61.063l29.752 72.256 8.501 21.252-4.25 4.25-12.751-8.501-25.502-85.006z"/></g></g><g><path d="M2959.194 109.022c-.698 25.438-11.443 49.592-29.868 67.144-18.426 17.552-43.073 27.112-68.514 26.575-25.442-.537-49.664-11.128-67.332-29.442-17.669-18.313-27.385-42.899-27.01-68.344.375-25.444 10.813-49.733 29.014-67.517 18.201-17.785 42.724-27.657 68.171-27.443 25.446.214 49.8 10.497 67.7 28.584 17.9 18.088 27.927 42.548 27.875 67.996" fill="#ffffff" stroke="#ffffff" stroke-width="7.228911" stroke-linecap="round" stroke-linejoin="round"/><path d="M2888.192 120.236l56.399-25.87-37.189 27.86z" fill="#373e48"/><path d="M2888.332 120.539l46.654-25.419-29.807 23.327z" fill="#535d6c"/><path d="M2888.337 120.568l36.116-6.313-25.5 8.454z" fill="#939dac"/><path d="M2837.54 120.435l-56.351-26.069 37.123 27.999z" fill="#373e48"/><path d="M2837.368 120.429l-46.653-25.309 29.819 23.249z" fill="#535d6c"/><path d="M2837.759 120.568l-36.12-6.32 25.502 8.459z" fill="#939dac"/><g fill="#3f51b5"><path d="M2896.837 61.063l-29.752 72.256-8.501 21.252 4.251 4.25 12.751-8.501 25.502-85.006z"/><path d="M2828.832 61.063l29.752 72.256 8.501 21.252-4.25 4.25-12.751-8.501-25.502-85.006z"/></g></g><g><path d="M3171.194 109.022c-.698 25.438-11.443 49.592-29.868 67.144-18.426 17.552-43.073 27.112-68.514 26.575-25.442-.537-49.664-11.128-67.332-29.442-17.669-18.313-27.385-42.899-27.01-68.344.375-25.444 10.813-49.733 29.014-67.517 18.201-17.785 42.724-27.657 68.171-27.443 25.446.214 49.8 10.497 67.7 28.584 17.9 18.088 27.927 42.548 27.875 67.996" fill="#ffffff" stroke="#ffffff" stroke-width="7.228911" stroke-linecap="round" stroke-linejoin="round"/><path d="M3100.181 120.21l57.499-24.049-38.283 26.701z" fill="#373e48"/><path d="M3100.329 120.527l47.468-22.828-30.682 21.601z" fill="#535d6c"/><path d="M3100.337 120.566l36.076-6.104-25.494 8.298z" fill="#939dac"/><path d="M3049.556 120.425l-57.447-24.264 38.211 26.85z" fill="#373e48"/><path d="M3049.382 120.373l-47.465-22.674 30.699 21.492z" fill="#535d6c"/><path d="M3049.762 120.567l-36.092-6.133 25.502 8.321z" fill="#939dac"/><g fill="#3f51b5"><path d="M3108.837 61.063l-29.752 72.256-8.501 21.252 4.251 4.25 12.751-8.501 25.502-85.006z"/><path d="M3040.832 61.063l29.752 72.256 8.501 21.252-4.25 4.25-12.751-8.501-25.502-85.006z"/></g></g><g><path d="M3383.194 109.022c-.698 25.438-11.443 49.592-29.868 67.144-18.426 17.552-43.073 27.112-68.514 26.575-25.442-.537-49.664-11.128-67.332-29.442-17.669-18.313-27.385-42.899-27.01-68.344.375-25.444 10.813-49.733 29.014-67.517 18.201-17.785 42.724-27.657 68.171-27.443 25.446.214 49.8 10.497 67.7 28.584 17.9 18.088 27.927 42.548 27.875 67.996" fill="#ffffff" stroke="#ffffff" stroke-width="7.228911" stroke-linecap="round" stroke-linejoin="round"/><path d="M3312.171 120.187l58.435-22.497-39.213 25.713z" fill="#373e48"/><path d="M3312.327 120.514l48.379-19.924-31.663 19.667z" fill="#535d6c"/><path d="M3312.337 120.563l36.001-5.714-25.481 8.008z" fill="#939dac"/><path d="M3261.57 120.416l-58.38-22.726 39.137 25.872z" fill="#373e48"/><path d="M3261.398 120.311l-48.376-19.721 31.685 19.524z" fill="#535d6c"/><path d="M3261.768 120.565l-36.041-5.784 25.502 8.063z" fill="#939dac"/><g fill="#3f51b5"><path d="M3320.837 61.063l-29.752 72.256-8.501 21.252 4.251 4.25 12.751-8.501 25.502-85.006z"/><path d="M3252.832 61.063l29.752 72.256 8.501 21.252-4.25 4.25-12.751-8.501-25.502-85.006z"/></g></g><g><path d="M3595.194 109.022c-.698 25.438-11.443 49.592-29.868 67.144-18.426 17.552-43.073 27.112-68.514 26.575-25.442-.537-49.664-11.128-67.332-29.442-17.669-18.313-27.385-42.899-27.01-68.344.375-25.444 10.813-49.733 29.014-67.517 18.201-17.785 42.724-27.657 68.171-27.443 25.446.214 49.8 10.497 67.7 28.584 17.9 18.088 27.927 42.548 27.875 67.996" fill="#ffffff" stroke="#ffffff" stroke-width="7.228911" stroke-linecap="round" stroke-linejoin="round"/><path d="M3524.163 120.168l59.234-21.175-40.007 24.872z" fill="#373e48"/><path d="M3524.325 120.501l49.297-16.997-32.651 17.718z" fill="#535d6c"/><path d="M3524.336 120.559l35.884-5.098-25.462 7.548z" fill="#939dac"/><path d="M3473.582 120.408l-59.176-21.415 39.927 25.039z" fill="#373e48"/><path d="M3473.414 120.247l-49.293-16.743 32.677 17.539z" fill="#535d6c"/><path d="M3473.777 120.563l-35.96-5.234 25.503 7.655z" fill="#939dac"/><g fill="#3f51b5"><path d="M3532.837 61.063l-29.752 72.256-8.501 21.252 4.251 4.25 12.751-8.501 25.502-85.006z"/><path d="M3464.832 61.063l29.752 72.256 8.501 21.252-4.25 4.25-12.751-8.501-25.502-85.006z"/></g></g><g><path d="M3807.194 109.022c-.698 25.438-11.443 49.592-29.868 67.144-18.426 17.552-43.073 27.112-68.514 26.575-25.442-.537-49.664-11.128-67.332-29.442-17.669-18.313-27.385-42.899-27.01-68.344.375-25.444 10.813-49.733 29.014-67.517 18.201-17.785 42.724-27.657 68.171-27.443 25.446.214 49.8 10.497 67.7 28.584 17.9 18.088 27.927 42.548 27.875 67.996" fill="#ffffff" stroke="#ffffff" stroke-width="7.228911" stroke-linecap="round" stroke-linejoin="round"/><path d="M3736.156 120.152l59.915-20.047-40.684 24.154z" fill="#373e48"/><path d="M3736.322 120.489l50.148-14.289-33.566 15.914z" fill="#535d6c"/><path d="M3736.335 120.553l35.713-4.198-25.435 6.877z" fill="#939dac"/><path d="M3685.592 120.402l-59.855-20.297 40.601 24.328z" fill="#373e48"/><path d="M3685.429 120.189l-50.143-13.989 33.597 15.703z" fill="#535d6c"/><path d="M3685.79 120.559l-35.842-4.429 25.504 7.059z" fill="#939dac"/><g fill="#3f51b5"><path d="M3744.837 61.063l-29.752 72.256-8.501 21.252 4.251 4.25 12.751-8.501 25.502-85.006z"/><path d="M3676.832 61.063l29.752 72.256 8.501 21.252-4.25 4.25-12.751-8.501-25.502-85.006z"/></g></g><g><path d="M4019.194 109.022c-.698 25.438-11.443 49.592-29.868 67.144-18.426 17.552-43.073 27.112-68.514 26.575-25.442-.537-49.664-11.128-67.332-29.442-17.669-18.313-27.385-42.899-27.01-68.344.375-25.444 10.813-49.733 29.014-67.517 18.201-17.785 42.724-27.657 68.171-27.443 25.446.214 49.8 10.497 67.7 28.584 17.9 18.088 27.927 42.548 27.875 67.996" fill="#ffffff" stroke="#ffffff" stroke-width="7.228911" stroke-linecap="round" stroke-linejoin="round"/><path d="M3948.15 120.138l60.498-19.082-41.264 23.54z" fill="#373e48"/><path d="M3948.32 120.478l50.894-11.908-34.369 14.329z" fill="#535d6c"/><path d="M3948.334 120.544l35.475-2.947-25.397 5.945z" fill="#939dac"/><path d="M3897.601 120.396l-60.436-19.34 41.178 23.719z" fill="#373e48"/><path d="M3897.442 120.138l-50.889-11.568 34.405 14.089z" fill="#535d6c"/><path d="M3897.808 120.553l-35.677-3.311 25.504 6.231z" fill="#939dac"/><g fill="#3f51b5"><path d="M3956.837 61.063l-29.752 72.256-8.501 21.252 4.251 4.25 12.751-8.501 25.502-85.006z"/><path d="M3888.832 61.063l29.752 72.256 8.501 21.252-4.25 4.25-12.751-8.501-25.502-85.006z"/></g></g><g><path d="M4231.194 109.022c-.698 25.438-11.443 49.592-29.868 67.144-18.426 17.552-43.073 27.112-68.514 26.575-25.442-.537-49.664-11.128-67.332-29.442-17.669-18.313-27.385-42.899-27.01-68.344.375-25.444 10.813-49.733 29.014-67.517 18.201-17.785 42.724-27.657 68.171-27.443 25.446.214 49.8 10.497 67.7 28.584 17.9 18.088 27.927 42.548 27.875 67.996" fill="#ffffff" stroke="#ffffff" stroke-width="7.228911" stroke-linecap="round" stroke-linejoin="round"/><path d="M4160.144 120.126l60.996-18.259-41.758 23.016z" fill="#373e48"/><path d="M4160.319 120.469l51.535-9.864-35.059 12.968z" fill="#535d6c"/><path d="M4160.333 120.532l35.159-1.295-25.345 4.714z" fill="#939dac"/><path d="M4109.608 120.392l-60.931-18.525 41.669 23.201z" fill="#373e48"/><path d="M4109.453 120.094l-51.529-9.489 35.098 12.703z" fill="#535d6c"/><path d="M4109.832 120.546l-35.46-1.835 25.506 5.138z" fill="#939dac"/><g fill="#3f51b5"><path d="M4168.837 61.063l-29.752 72.256-8.501 21.252 4.251 4.25 12.751-8.501 25.502-85.006z"/><path d="M4100.832 61.063l29.752 72.256 8.501 21.252-4.25 4.25-12.751-8.501-25.502-85.006z"/></g></g><g><path d="M4443.194 109.022c-.698 25.438-11.443 49.592-29.868 67.144-18.426 17.552-43.073 27.112-68.514 26.575-25.442-.537-49.664-11.128-67.332-29.442-17.669-18.313-27.385-42.899-27.01-68.344.375-25.444 10.813-49.733 29.014-67.517 18.201-17.785 42.724-27.657 68.171-27.443 25.446.214 49.8 10.497 67.7 28.584 17.9 18.088 27.927 42.548 27.875 67.996" fill="#ffffff" stroke="#ffffff" stroke-width="7.228911" stroke-linecap="round" stroke-linejoin="round"/><path d="M4372.14 120.116l61.418-17.558-42.178 22.57z" fill="#373e48"/><path d="M4372.317 120.461l52.083-8.121-35.648 11.807z" fill="#535d6c"/><path d="M4372.332 120.517l34.77.743-25.282 3.195z" fill="#939dac"/><path d="M4321.615 120.388l-61.353-17.83 42.088 22.759z" fill="#373e48"/><path d="M4321.462 120.056l-52.075-7.716 35.69 11.521z" fill="#535d6c"/><path d="M4321.862 120.537l-35.192-.013 25.507 3.789z" fill="#939dac"/><g fill="#3f51b5"><path d="M4380.837 61.063l-29.752 72.256-8.501 21.252 4.251 4.25 12.751-8.501 25.502-85.006z"/><path d="M4312.832 61.063l29.752 72.256 8.501 21.252-4.25 4.25-12.751-8.501-25.502-85.006z"/></g></g><g><path d="M4655.194 109.022c-.698 25.438-11.443 49.592-29.868 67.144-18.426 17.552-43.073 27.112-68.514 26.575-25.442-.537-49.664-11.128-67.332-29.442-17.669-18.313-27.385-42.899-27.01-68.344.375-25.444 10.813-49.733 29.014-67.517 18.201-17.785 42.724-27.657 68.171-27.443 25.446.214 49.8 10.497 67.7 28.584 17.9 18.088 27.927 42.548 27.875 67.996" fill="#ffffff" stroke="#ffffff" stroke-width="7.228911" stroke-linecap="round" stroke-linejoin="round"/><path d="M4584.136 120.107l61.778-16.963-42.535 22.192z" fill="#373e48"/><path d="M4584.316 120.454l52.548-6.637-36.149 10.819z" fill="#535d6c"/><path d="M4584.33 120.501l34.335 3.027-25.212 1.493z" fill="#939dac"/><path d="M4533.62 120.384l-61.711-17.24 42.443 22.384z" fill="#373e48"/><path d="M4533.47 120.024l-52.54-6.207 36.193 10.516z" fill="#535d6c"/><path d="M4533.895 120.528l-34.892 2.028 25.509 2.276z" fill="#939dac"/><g fill="#3f51b5"><path d="M4592.837 61.063l-29.752 72.256-8.501 21.252 4.251 4.25 12.751-8.501 25.502-85.006z"/><path d="M4524.832 61.063l29.752 72.256 8.501 21.252-4.25 4.25-12.751-8.501-25.502-85.006z"/></g></g><g><path d="M4867.194 109.022c-.698 25.438-11.443 49.592-29.868 67.144-18.426 17.552-43.073 27.112-68.514 26.575-25.442-.537-49.664-11.128-67.332-29.442-17.669-18.313-27.385-42.899-27.01-68.344.375-25.444 10.813-49.733 29.014-67.517 18.201-17.785 42.724-27.657 68.171-27.443 25.446.214 49.8 10.497 67.7 28.584 17.9 18.088 27.927 42.548 27.875 67.996" fill="#ffffff" stroke="#ffffff" stroke-width="7.228911" stroke-linecap="round" stroke-linejoin="round"/><path d="M4796.133 120.1l62.08-16.463-42.836 21.873z" fill="#373e48"/><path d="M4796.315 120.448l52.945-5.371-36.576 9.976z" fill="#535d6c"/><path d="M4796.328 120.485l33.896 5.329-25.141-.223z" fill="#939dac"/><path d="M4745.625 120.381l-62.012-16.744 42.742 22.069z" fill="#373e48"/><path d="M4745.477 119.997l-52.937-4.92 36.623 9.657z" fill="#535d6c"/><path d="M4745.929 120.518l-34.589 4.087 25.51.751z" fill="#939dac"/><g fill="#3f51b5"><path d="M4804.837 61.063l-29.752 72.256-8.501 21.252 4.251 4.25 12.751-8.501 25.502-85.006z"/><path d="M4736.832 61.063l29.752 72.256 8.501 21.252-4.25 4.25-12.751-8.501-25.502-85.006z"/></g></g><g><path d="M5079.194 109.022c-.698 25.438-11.443 49.592-29.868 67.144-18.426 17.552-43.073 27.112-68.514 26.575-25.442-.537-49.664-11.128-67.332-29.442-17.669-18.313-27.385-42.899-27.01-68.344.375-25.444 10.813-49.733 29.014-67.517 18.201-17.785 42.724-27.657 68.171-27.443 25.446.214 49.8 10.497 67.7 28.584 17.9 18.088 27.927 42.548 27.875 67.996" fill="#ffffff" stroke="#ffffff" stroke-width="7.228911" stroke-linecap="round" stroke-linejoin="round"/><path d="M5008.13 120.094l62.332-16.046-43.086 21.608z" fill="#373e48"/><path d="M5008.314 120.443l53.284-4.291-36.941 9.257z" fill="#535d6c"/><path d="M5008.327 120.47l33.489 7.459-25.075-1.811z" fill="#939dac"/><path d="M4957.628 120.379l-62.262-16.331 42.991 21.806z" fill="#373e48"/><path d="M4957.483 119.974l-53.276-3.822 36.99 8.925z" fill="#535d6c"/><path d="M4957.96 120.509l-34.309 5.99 25.511-.658z" fill="#939dac"/><g fill="#3f51b5"><path d="M5016.837 61.063l-29.752 72.256-8.501 21.252 4.251 4.25 12.751-8.501 25.502-85.006z"/><path d="M4948.832 61.063l29.752 72.256 8.501 21.252-4.25 4.25-12.751-8.501-25.502-85.006z"/></g></g><g><path d="M5291.194 109.022c-.698 25.438-11.443 49.592-29.868 67.144-18.426 17.552-43.073 27.112-68.514 26.575-25.442-.537-49.664-11.128-67.332-29.442-17.669-18.313-27.385-42.899-27.01-68.344.375-25.444 10.813-49.733 29.014-67.517 18.201-17.785 42.724-27.657 68.171-27.443 25.446.214 49.8 10.497 67.7 28.584 17.9 18.088 27.927 42.548 27.875 67.996" fill="#ffffff" stroke="#ffffff" stroke-width="7.228911" stroke-linecap="round" stroke-linejoin="round"/><path d="M5220.128 120.089l62.538-15.704-43.291 21.39z" fill="#373e48"/><path d="M5220.313 120.439l53.574-3.369-37.252 8.643z" fill="#535d6c"/><path d="M5220.325 120.456l33.133 9.332-25.018-3.206z" fill="#939dac"/><path d="M5169.631 120.377l-62.468-15.992 43.195 21.59z" fill="#373e48"/><path d="M5169.488 119.954l-53.565-2.884 37.302 8.3z" fill="#535d6c"/><path d="M5169.987 120.501l-34.063 7.664 25.513-1.898z" fill="#939dac"/><g fill="#3f51b5"><path d="M5228.837 61.063l-29.752 72.256-8.501 21.252 4.251 4.25 12.751-8.501 25.502-85.006z"/><path d="M5160.832 61.063l29.752 72.256 8.501 21.252-4.25 4.25-12.751-8.501-25.502-85.006z"/></g></g><g><path d="M5503.194 109.022c-.698 25.438-11.443 49.592-29.868 67.144-18.426 17.552-43.073 27.112-68.514 26.575-25.442-.537-49.664-11.128-67.332-29.442-17.669-18.313-27.385-42.899-27.01-68.344.375-25.444 10.813-49.733 29.014-67.517 18.201-17.785 42.724-27.657 68.171-27.443 25.446.214 49.8 10.497 67.7 28.584 17.9 18.088 27.927 42.548 27.875 67.996" fill="#ffffff" stroke="#ffffff" stroke-width="7.228911" stroke-linecap="round" stroke-linejoin="round"/><path d="M5432.127 120.085l62.704-15.429-43.457 21.215z" fill="#373e48"/><path d="M5432.313 120.436l53.82-2.581-37.518 8.117z" fill="#535d6c"/><path d="M5432.324 120.445l32.826 10.94-24.968-4.405z" fill="#939dac"/><path d="M5381.634 120.375L5319 104.656l43.359 21.417z" fill="#373e48"/><path d="M5381.492 119.937l-53.811-2.082 37.569 7.765z" fill="#535d6c"/><path d="M5382.011 120.494l-33.852 9.101 25.514-2.962z" fill="#939dac"/><g fill="#3f51b5"><path d="M5440.837 61.063l-29.752 72.256-8.501 21.252 4.251 4.25 12.751-8.501 25.502-85.006z"/><path d="M5372.832 61.063l29.752 72.256 8.501 21.252-4.25 4.25-12.751-8.501-25.502-85.006z"/></g></g><g><path d="M5715.194 109.022c-.698 25.438-11.443 49.592-29.868 67.144-18.426 17.552-43.073 27.112-68.514 26.575-25.442-.537-49.664-11.128-67.332-29.442-17.669-18.313-27.385-42.899-27.01-68.344.375-25.444 10.813-49.733 29.014-67.517 18.201-17.785 42.724-27.657 68.171-27.443 25.446.214 49.8 10.497 67.7 28.584 17.9 18.088 27.927 42.548 27.875 67.996" fill="#ffffff" stroke="#ffffff" stroke-width="7.228911" stroke-linecap="round" stroke-linejoin="round"/><path d="M5644.125 120.082l62.834-15.214-43.585 21.078z" fill="#373e48"/><path d="M5644.312 120.433l54.031-1.911-37.744 7.671z" fill="#535d6c"/><path d="M5644.323 120.435l32.564 12.311-24.926-5.426z" fill="#939dac"/><path d="M5593.636 120.374l-62.764-15.506 43.488 21.281z" fill="#373e48"/><path d="M5593.496 119.923l-54.022-1.401 37.797 7.311z" fill="#535d6c"/><path d="M5594.031 120.488l-33.672 10.327 25.515-3.87z" fill="#939dac"/><g fill="#3f51b5"><path d="M5652.837 61.063l-29.752 72.256-8.501 21.252 4.251 4.25 12.751-8.501 25.502-85.006z"/><path d="M5584.832 61.063l29.752 72.256 8.501 21.252-4.25 4.25-12.751-8.501-25.502-85.006z"/></g></g><g><path d="M5927.194 109.022c-.698 25.438-11.443 49.592-29.868 67.144-18.426 17.552-43.073 27.112-68.514 26.575-25.442-.537-49.664-11.128-67.332-29.442-17.669-18.313-27.385-42.899-27.01-68.344.375-25.444 10.813-49.733 29.014-67.517 18.201-17.785 42.724-27.657 68.171-27.443 25.446.214 49.8 10.497 67.7 28.584 17.9 18.088 27.927 42.548 27.875 67.996" fill="#ffffff" stroke="#ffffff" stroke-width="7.228911" stroke-linecap="round" stroke-linejoin="round"/><path d="M5856.124 120.08l62.93-15.055-43.68 20.977z" fill="#373e48"/><path d="M5856.312 120.43l54.209-1.342-37.936 7.293z" fill="#535d6c"/><path d="M5856.322 120.427l32.342 13.478-24.89-6.296z" fill="#939dac"/><path d="M5805.637 120.373l-62.859-15.348 43.583 21.181z" fill="#373e48"/><path d="M5805.499 119.91l-54.2-.822 37.99 6.926z" fill="#535d6c"/><path d="M5806.048 120.483l-33.518 11.37 25.516-4.642z" fill="#939dac"/><g fill="#3f51b5"><path d="M5864.837 61.063l-29.752 72.256-8.501 21.252 4.251 4.25 12.751-8.501 25.502-85.006z"/><path d="M5796.832 61.063l29.752 72.256 8.501 21.252-4.25 4.25-12.751-8.501-25.502-85.006z"/></g></g><g><path d="M6139.194 109.022c-.698 25.438-11.443 49.592-29.868 67.144-18.426 17.552-43.073 27.112-68.514 26.575-25.442-.537-49.664-11.128-67.332-29.442-17.669-18.313-27.385-42.899-27.01-68.344.375-25.444 10.813-49.733 29.014-67.517 18.201-17.785 42.724-27.657 68.171-27.443 25.446.214 49.8 10.497 67.7 28.584 17.9 18.088 27.927 42.548 27.875 67.996" fill="#ffffff" stroke="#ffffff" stroke-width="7.228911" stroke-linecap="round" stroke-linejoin="round"/><path d="M6068.124 120.078l62.995-14.946-43.746 20.908z" fill="#373e48"/><path d="M6068.311 120.428l54.36-.863-38.098 6.973z" fill="#535d6c"/><path d="M6068.322 120.42l32.151 14.473-24.859-7.038z" fill="#939dac"/><path d="M6017.638 120.372l-62.925-15.24 43.649 21.113z" fill="#373e48"/><path d="M6017.502 119.9l-54.35-.335 38.152 6.601z" fill="#535d6c"/><path d="M6018.063 120.478l-33.388 12.26 25.517-5.301z" fill="#939dac"/><g fill="#3f51b5"><path d="M6076.837 61.063l-29.752 72.256-8.501 21.252 4.251 4.25 12.751-8.501 25.502-85.006z"/><path d="M6008.832 61.063l29.752 72.256 8.501 21.252-4.25 4.25-12.751-8.501-25.502-85.006z"/></g></g><g><path d="M6351.194 109.022c-.698 25.438-11.443 49.592-29.868 67.144-18.426 17.552-43.073 27.112-68.514 26.575-25.442-.537-49.664-11.128-67.332-29.442-17.669-18.313-27.385-42.899-27.01-68.344.375-25.444 10.813-49.733 29.014-67.517 18.201-17.785 42.724-27.657 68.171-27.443 25.446.214 49.8 10.497 67.7 28.584 17.9 18.088 27.927 42.548 27.875 67.996" fill="#ffffff" stroke="#ffffff" stroke-width="7.228911" stroke-linecap="round" stroke-linejoin="round"/><path d="M6280.123 120.077l63.034-14.883-43.784 20.868z" fill="#373e48"/><path d="M6280.311 120.426l54.485-.464-38.233 6.708z" fill="#535d6c"/><path d="M6280.321 120.414l31.99 15.323-24.833-7.672z" fill="#939dac"/><path d="M6229.639 120.372l-62.963-15.178 43.686 21.073z" fill="#373e48"/><path d="M6229.504 119.891l-54.475.071 38.288 6.33z" fill="#535d6c"/><path d="M6230.075 120.475l-33.276 13.019 25.518-5.864z" fill="#939dac"/><g fill="#3f51b5"><path d="M6288.837 61.063l-29.752 72.256-8.501 21.252 4.251 4.25 12.751-8.501 25.502-85.006z"/><path d="M6220.832 61.063l29.752 72.256 8.501 21.252-4.25 4.25-12.751-8.501-25.502-85.006z"/></g></g><g><path d="M6563.194 109.022c-.698 25.438-11.443 49.592-29.868 67.144-18.426 17.552-43.073 27.112-68.514 26.575-25.442-.537-49.664-11.128-67.332-29.442-17.669-18.313-27.385-42.899-27.01-68.344.375-25.444 10.813-49.733 29.014-67.517 18.201-17.785 42.724-27.657 68.171-27.443 25.446.214 49.8 10.497 67.7 28.584 17.9 18.088 27.927 42.548 27.875 67.996" fill="#ffffff" stroke="#ffffff" stroke-width="7.228911" stroke-linecap="round" stroke-linejoin="round"/><path d="M6492.123 120.077l63.046-14.863-43.796 20.855z" fill="#373e48"/><path d="M6492.311 120.425l54.587-.137-38.343 6.49z" fill="#535d6c"/><path d="M6492.32 120.409l31.852 16.048-24.811-8.212z" fill="#939dac"/><path d="M6441.639 120.372l-62.975-15.158 43.698 21.06z" fill="#373e48"/><path d="M6441.506 119.884l-54.578.404 38.399 6.108z" fill="#535d6c"/><path d="M6442.086 120.472l-33.181 13.668 25.518-6.344z" fill="#939dac"/><g fill="#3f51b5"><path d="M6500.837 61.063l-29.752 72.256-8.501 21.252 4.251 4.25 12.751-8.501 25.502-85.006z"/><path d="M6432.832 61.063l29.752 72.256 8.501 21.252-4.25 4.25-12.751-8.501-25.502-85.006z"/></g></g><g><path d="M6775.194 109.022c-.698 25.438-11.443 49.592-29.868 67.144-18.426 17.552-43.073 27.112-68.514 26.575-25.442-.537-49.664-11.128-67.332-29.442-17.669-18.313-27.385-42.899-27.01-68.344.375-25.444 10.813-49.733 29.014-67.517 18.201-17.785 42.724-27.657 68.171-27.443 25.446.214 49.8 10.497 67.7 28.584 17.9 18.088 27.927 42.548 27.875 67.996" fill="#ffffff" stroke="#ffffff" stroke-width="7.228911" stroke-linecap="round" stroke-linejoin="round"/><path d="M6704.124 120.078l62.994-14.947-43.745 20.908z" fill="#373e48"/><path d="M6704.31 120.423l54.671.127-38.433 6.315z" fill="#535d6c"/><path d="M6704.32 120.404l31.733 16.668-24.791-8.674z" fill="#939dac"/><path d="M6653.638 120.372l-62.924-15.241 43.648 21.113z" fill="#373e48"/><path d="M6653.507 119.879l-54.66.671 38.488 5.93z" fill="#535d6c"/><path d="M6654.095 120.469l-33.099 14.222 25.518-6.755z" fill="#939dac"/><g fill="#3f51b5"><path d="M6712.837 61.063l-29.752 72.256-8.501 21.252 4.251 4.25 12.751-8.501 25.502-85.006z"/><path d="M6644.832 61.063l29.752 72.256 8.501 21.252-4.25 4.25-12.751-8.501-25.502-85.006z"/></g></g><g><path d="M6987.194 109.022c-.698 25.438-11.443 49.592-29.868 67.144-18.426 17.552-43.073 27.112-68.514 26.575-25.442-.537-49.664-11.128-67.332-29.442-17.669-18.313-27.385-42.899-27.01-68.344.375-25.444 10.813-49.733 29.014-67.517 18.201-17.785 42.724-27.657 68.171-27.443 25.446.214 49.8 10.497 67.7 28.584 17.9 18.088 27.927 42.548 27.875 67.996" fill="#ffffff" stroke="#ffffff" stroke-width="7.228911" stroke-linecap="round" stroke-linejoin="round"/><path d="M6916.125 120.082l62.827-15.226-43.578 21.086z" fill="#373e48"/><path d="M6916.31 120.423l54.735.331-38.502 6.178z" fill="#535d6c"/><path d="M6916.32 120.4l31.632 17.196-24.775-9.067z" fill="#939dac"/><path d="M6865.636 120.374l-62.757-15.517 43.481 21.288z" fill="#373e48"/><path d="M6865.508 119.874l-54.724.88 38.557 5.791z" fill="#535d6c"/><path d="M6866.102 120.467l-33.029 14.693 25.518-7.103z" fill="#939dac"/><g fill="#3f51b5"><path d="M6924.837 61.063l-29.752 72.256-8.501 21.252 4.251 4.25 12.751-8.501 25.502-85.006z"/><path d="M6856.832 61.063l29.752 72.256 8.501 21.252-4.25 4.25-12.751-8.501-25.502-85.006z"/></g></g><g><path d="M7199.194 109.022c-.698 25.438-11.443 49.592-29.868 67.144-18.426 17.552-43.073 27.112-68.514 26.575-25.442-.537-49.664-11.128-67.332-29.442-17.669-18.313-27.385-42.899-27.01-68.344.375-25.444 10.813-49.733 29.014-67.517 18.201-17.785 42.724-27.657 68.171-27.443 25.446.214 49.8 10.497 67.7 28.584 17.9 18.088 27.927 42.548 27.875 67.996" fill="#ffffff" stroke="#ffffff" stroke-width="7.228911" stroke-linecap="round" stroke-linejoin="round"/><path d="M7128.129 120.09l62.512-15.747-43.266 21.417z" fill="#373e48"/><path d="M7128.31 120.422l54.782.484-38.552 6.076z" fill="#535d6c"/><path d="M7128.319 120.397l31.548 17.643-24.762-9.4z" fill="#939dac"/><path d="M7077.631 120.377l-62.445-16.03 43.172 21.615z" fill="#373e48"/><path d="M7077.509 119.871l-54.772 1.035 38.609 5.688z" fill="#535d6c"/><path d="M7078.109 120.465l-32.971 15.093 25.519-7.4z" fill="#939dac"/><g fill="#3f51b5"><path d="M7136.837 61.063l-29.752 72.256-8.501 21.252 4.251 4.25 12.751-8.501 25.502-85.006z"/><path d="M7068.832 61.063l29.752 72.256 8.501 21.252-4.25 4.25-12.751-8.501-25.502-85.006z"/></g></g><g><path d="M7411.194 109.022c-.698 25.438-11.443 49.592-29.868 67.144-18.426 17.552-43.073 27.112-68.514 26.575-25.442-.537-49.664-11.128-67.332-29.442-17.669-18.313-27.385-42.899-27.01-68.344.375-25.444 10.813-49.733 29.014-67.517 18.201-17.785 42.724-27.657 68.171-27.443 25.446.214 49.8 10.497 67.7 28.584 17.9 18.088 27.927 42.548 27.875 67.996" fill="#ffffff" stroke="#ffffff" stroke-width="7.228911" stroke-linecap="round" stroke-linejoin="round"/><path d="M7340.134 120.102l62.015-16.57-42.771 21.941z" fill="#373e48"/><path d="M7340.31 120.421l54.815.589-38.588 6.007z" fill="#535d6c"/><path d="M7340.319 120.395l31.476 18.019-24.751-9.681z" fill="#939dac"/><path d="M7289.624 120.382l-61.953-16.842 42.683 22.131z" fill="#373e48"/><path d="M7289.51 119.869l-54.806 1.141 38.646 5.617z" fill="#535d6c"/><path d="M7290.114 120.463l-32.921 15.43 25.519-7.649z" fill="#939dac"/><g fill="#3f51b5"><path d="M7348.837 61.063l-29.752 72.256-8.501 21.252 4.251 4.25 12.751-8.501 25.502-85.006z"/><path d="M7280.832 61.063l29.752 72.256 8.501 21.252-4.25 4.25-12.751-8.501-25.502-85.006z"/></g></g><g><path d="M7623.194 109.022c-.698 25.438-11.443 49.592-29.868 67.144-18.426 17.552-43.073 27.112-68.514 26.575-25.442-.537-49.664-11.128-67.332-29.442-17.669-18.313-27.385-42.899-27.01-68.344.375-25.444 10.813-49.733 29.014-67.517 18.201-17.785 42.724-27.657 68.171-27.443 25.446.214 49.8 10.497 67.7 28.584 17.9 18.088 27.927 42.548 27.875 67.996" fill="#ffffff" stroke="#ffffff" stroke-width="7.228911" stroke-linecap="round" stroke-linejoin="round"/><path d="M7552.141 120.119l61.289-17.772-42.049 22.706z" fill="#373e48"/><path d="M7552.31 120.421l54.834.649-38.609 5.967z" fill="#535d6c"/><path d="M7552.319 120.392l31.416 18.334-24.741-9.916z" fill="#939dac"/><path d="M7501.613 120.389l-61.233-18.028 41.969 22.885z" fill="#373e48"/><path d="M7501.51 119.867l-54.824 1.203 38.665 5.576z" fill="#535d6c"/><path d="M7502.119 120.462l-32.88 15.71 25.519-7.857z" fill="#939dac"/><g fill="#3f51b5"><path d="M7560.837 61.063l-29.752 72.256-8.501 21.252 4.251 4.25 12.751-8.501 25.502-85.006z"/><path d="M7492.832 61.063l29.752 72.256 8.501 21.252-4.25 4.25-12.751-8.501-25.502-85.006z"/></g></g><g><path d="M7835.194 109.022c-.698 25.438-11.443 49.592-29.868 67.144-18.426 17.552-43.073 27.112-68.514 26.575-25.442-.537-49.664-11.128-67.332-29.442-17.669-18.313-27.385-42.899-27.01-68.344.375-25.444 10.813-49.733 29.014-67.517 18.201-17.785 42.724-27.657 68.171-27.443 25.446.214 49.8 10.497 67.7 28.584 17.9 18.088 27.927 42.548 27.875 67.996" fill="#ffffff" stroke="#ffffff" stroke-width="7.228911" stroke-linecap="round" stroke-linejoin="round"/><path d="M7764.152 120.143l60.28-19.442-41.047 23.769z" fill="#373e48"/><path d="M7764.31 120.421l54.84.668-38.615 5.954z" fill="#535d6c"/><path d="M7764.318 120.391l31.367 18.59-24.732-10.107z" fill="#939dac"/><path d="M7713.598 120.398l-60.233-19.675 40.976 23.933z" fill="#373e48"/><path d="M7713.51 119.867l-54.83 1.222 38.672 5.563z" fill="#535d6c"/><path d="M7714.123 120.461l-32.846 15.94 25.519-8.027z" fill="#939dac"/><g fill="#3f51b5"><path d="M7772.837 61.063l-29.752 72.256-8.501 21.252 4.251 4.25 12.751-8.501 25.502-85.006z"/><path d="M7704.832 61.063l29.752 72.256 8.501 21.252-4.25 4.25-12.751-8.501-25.502-85.006z"/></g></g><g><path d="M8047.194 109.022c-.698 25.438-11.443 49.592-29.868 67.144-18.426 17.552-43.073 27.112-68.514 26.575-25.442-.537-49.664-11.128-67.332-29.442-17.669-18.313-27.385-42.899-27.01-68.344.375-25.444 10.813-49.733 29.014-67.517 18.201-17.785 42.724-27.657 68.171-27.443 25.446.214 49.8 10.497 67.7 28.584 17.9 18.088 27.927 42.548 27.875 67.996" fill="#ffffff" stroke="#ffffff" stroke-width="7.228911" stroke-linecap="round" stroke-linejoin="round"/><path d="M7976.166 120.175l58.948-21.649-39.723 25.174z" fill="#373e48"/><path d="M7976.31 120.421l54.815.588-38.588 6.007z" fill="#535d6c"/><path d="M7976.318 120.389l31.328 18.798-24.727-10.261z" fill="#939dac"/><path d="M7925.578 120.411l-58.912-21.85 39.665 25.315z" fill="#373e48"/><path d="M7925.51 119.869l-54.805 1.14 38.644 5.617z" fill="#535d6c"/><path d="M7926.126 120.46l-32.819 16.125 25.519-8.164z" fill="#939dac"/><g fill="#3f51b5"><path d="M7984.837 61.063l-29.752 72.256-8.501 21.252 4.251 4.25 12.751-8.501 25.502-85.006z"/><path d="M7916.832 61.063l29.752 72.256 8.501 21.252-4.25 4.25-12.751-8.501-25.502-85.006z"/></g></g><g><path d="M8259.194 109.022c-.698 25.438-11.443 49.592-29.868 67.144-18.426 17.552-43.073 27.112-68.514 26.575-25.442-.537-49.664-11.128-67.332-29.442-17.669-18.313-27.385-42.899-27.01-68.344.375-25.444 10.813-49.733 29.014-67.517 18.201-17.785 42.724-27.657 68.171-27.443 25.446.214 49.8 10.497 67.7 28.584 17.9 18.088 27.927 42.548 27.875 67.996" fill="#ffffff" stroke="#ffffff" stroke-width="7.228911" stroke-linecap="round" stroke-linejoin="round"/><path d="M8188.183 120.214l57.305-24.368-38.09 26.904z" fill="#373e48"/><path d="M8188.31 120.423l54.732.321-38.498 6.185z" fill="#535d6c"/><path d="M8188.318 120.388l31.297 18.959-24.722-10.381z" fill="#939dac"/><path d="M8137.554 120.426l-57.283-24.534 38.048 27.023z" fill="#373e48"/><path d="M8137.508 119.874l-54.721.87 38.554 5.798z" fill="#535d6c"/><path d="M8138.128 120.459l-32.798 16.27 25.52-8.271z" fill="#939dac"/><g fill="#3f51b5"><path d="M8196.837 61.063l-29.752 72.256-8.501 21.252 4.251 4.25 12.751-8.501 25.502-85.006z"/><path d="M8128.832 61.063l29.752 72.256 8.501 21.252-4.25 4.25-12.751-8.501-25.502-85.006z"/></g></g><g><path d="M8471.194 109.022c-.698 25.438-11.443 49.592-29.868 67.144-18.426 17.552-43.073 27.112-68.514 26.575-25.442-.537-49.664-11.128-67.332-29.442-17.669-18.313-27.385-42.899-27.01-68.344.375-25.444 10.813-49.733 29.014-67.517 18.201-17.785 42.724-27.657 68.171-27.443 25.446.214 49.8 10.497 67.7 28.584 17.9 18.088 27.927 42.548 27.875 67.996" fill="#ffffff" stroke="#ffffff" stroke-width="7.228911" stroke-linecap="round" stroke-linejoin="round"/><path d="M8400.202 120.258l55.467-27.413-36.263 28.842z" fill="#373e48"/><path d="M8400.311 120.425l54.576-.174-38.331 6.515z" fill="#535d6c"/><path d="M8400.318 120.387l31.274 19.079-24.718-10.471z" fill="#939dac"/><path d="M8349.527 120.444L8294.071 92.9l36.234 28.936z" fill="#373e48"/><path d="M8349.505 119.885l-54.566.366 38.387 6.134z" fill="#535d6c"/><path d="M8350.13 120.459l-32.782 16.376 25.52-8.35z" fill="#939dac"/><g fill="#3f51b5"><path d="M8408.837 61.063l-29.752 72.256-8.501 21.252 4.251 4.25 12.751-8.501 25.502-85.006z"/><path d="M8340.832 61.063l29.752 72.256 8.501 21.252-4.25 4.25-12.751-8.501-25.502-85.006z"/></g></g><g><path d="M8683.194 109.022c-.698 25.438-11.443 49.592-29.868 67.144-18.426 17.552-43.073 27.112-68.514 26.575-25.442-.537-49.664-11.128-67.332-29.442-17.669-18.313-27.385-42.899-27.01-68.344.375-25.444 10.813-49.733 29.014-67.517 18.201-17.785 42.724-27.657 68.171-27.443 25.446.214 49.8 10.497 67.7 28.584 17.9 18.088 27.927 42.548 27.875 67.996" fill="#ffffff" stroke="#ffffff" stroke-width="7.228911" stroke-linecap="round" stroke-linejoin="round"/><path d="M8612.221 120.302l53.617-30.476-34.424 30.791z" fill="#373e48"/><path d="M8612.311 120.428l54.33-.957-38.066 7.036z" fill="#535d6c"/><path d="M8612.318 120.386l31.258 19.162-24.715-10.532z" fill="#939dac"/><path d="M8561.499 120.462l-53.614-30.577 34.406 30.864z" fill="#373e48"/><path d="M8561.501 119.902l-54.32-.431 38.12 6.665z" fill="#535d6c"/><path d="M8562.131 120.458l-32.771 16.45 25.52-8.404z" fill="#939dac"/><g fill="#3f51b5"><path d="M8620.837 61.063l-29.752 72.256-8.501 21.252 4.251 4.25 12.751-8.501 25.502-85.006z"/><path d="M8552.832 61.063l29.752 72.256 8.501 21.252-4.25 4.25-12.751-8.501-25.502-85.006z"/></g></g><g><path d="M8895.194 109.022c-.698 25.438-11.443 49.592-29.868 67.144-18.426 17.552-43.073 27.112-68.514 26.575-25.442-.537-49.664-11.128-67.332-29.442-17.669-18.313-27.385-42.899-27.01-68.344.375-25.444 10.813-49.733 29.014-67.517 18.201-17.785 42.724-27.657 68.171-27.443 25.446.214 49.8 10.497 67.7 28.584 17.9 18.088 27.927 42.548 27.875 67.996" fill="#ffffff" stroke="#ffffff" stroke-width="7.228911" stroke-linecap="round" stroke-linejoin="round"/><path d="M8824.239 120.343l51.908-33.306-32.725 32.593z" fill="#373e48"/><path d="M8824.312 120.434l53.971-2.102-37.68 7.798z" fill="#535d6c"/><path d="M8824.318 120.386l31.249 19.209-24.714-10.568z" fill="#939dac"/><path d="M8773.474 120.478l-51.911-33.383 32.715 32.649z" fill="#373e48"/><path d="M8773.495 119.927l-53.962-1.595 37.732 7.441z" fill="#535d6c"/><path d="M8774.132 120.458l-32.765 16.492 25.52-8.435z" fill="#939dac"/><g fill="#3f51b5"><path d="M8832.837 61.063l-29.752 72.256-8.501 21.252 4.251 4.25 12.751-8.501 25.502-85.006z"/><path d="M8764.832 61.063l29.752 72.256 8.501 21.252-4.25 4.25-12.751-8.501-25.502-85.006z"/></g></g><g><path d="M9107.194 109.022c-.698 25.438-11.443 49.592-29.868 67.144-18.426 17.552-43.073 27.112-68.514 26.575-25.442-.537-49.664-11.128-67.332-29.442-17.669-18.313-27.385-42.899-27.01-68.344.375-25.444 10.813-49.733 29.014-67.517 18.201-17.785 42.724-27.657 68.171-27.443 25.446.214 49.8 10.497 67.7 28.584 17.9 18.088 27.927 42.548 27.875 67.996" fill="#ffffff" stroke="#ffffff" stroke-width="7.228911" stroke-linecap="round" stroke-linejoin="round"/><path d="M9036.255 120.379l50.407-35.79-31.234 34.173z" fill="#373e48"/><path d="M9036.314 120.441l53.472-3.692-37.143 8.857z" fill="#535d6c"/><path d="M9036.318 120.386l31.246 19.224-24.713-10.579z" fill="#939dac"/><path d="M8985.451 120.492l-50.413-35.849 31.228 34.218z" fill="#373e48"/><path d="M8985.486 119.961l-53.463-3.212 37.192 8.519z" fill="#535d6c"/><path d="M8986.132 120.458l-32.763 16.506 25.52-8.446z" fill="#939dac"/><g fill="#3f51b5"><path d="M9044.837 61.063l-29.752 72.256-8.501 21.252 4.251 4.25 12.751-8.501 25.502-85.006z"/><path d="M8976.832 61.063l29.752 72.256 8.501 21.252-4.25 4.25-12.751-8.501-25.502-85.006z"/></g></g><g><path d="M9319.194 109.022c-.698 25.438-11.443 49.592-29.868 67.144-18.426 17.552-43.073 27.112-68.514 26.575-25.442-.537-49.664-11.128-67.332-29.442-17.669-18.313-27.385-42.899-27.01-68.344.375-25.444 10.813-49.733 29.014-67.517 18.201-17.785 42.724-27.657 68.171-27.443 25.446.214 49.8 10.497 67.7 28.584 17.9 18.088 27.927 42.548 27.875 67.996" fill="#ffffff" stroke="#ffffff" stroke-width="7.228911" stroke-linecap="round" stroke-linejoin="round"/><path d="M9248.268 120.41l49.119-37.923-29.953 35.53z" fill="#373e48"/><path d="M9248.315 120.45l52.814-5.791-36.435 10.255z" fill="#535d6c"/><path d="M9248.318 120.386l31.258 19.161-24.715-10.532z" fill="#939dac"/><path d="M9197.432 120.505l-49.127-37.968 29.951 35.564z" fill="#373e48"/><path d="M9197.475 120.006l-52.806-5.347 36.481 9.942z" fill="#535d6c"/><path d="M9198.131 120.458l-32.771 16.45 25.52-8.404z" fill="#939dac"/><g fill="#3f51b5"><path d="M9256.837 61.063l-29.752 72.256-8.501 21.252 4.251 4.25 12.751-8.501 25.502-85.006z"/><path d="M9188.832 61.063l29.752 72.256 8.501 21.252-4.25 4.25-12.751-8.501-25.502-85.006z"/></g></g><g><path d="M9531.194 109.022c-.698 25.438-11.443 49.592-29.868 67.144-18.426 17.552-43.073 27.112-68.514 26.575-25.442-.537-49.664-11.128-67.332-29.442-17.669-18.313-27.385-42.899-27.01-68.344.375-25.444 10.813-49.733 29.014-67.517 18.201-17.785 42.724-27.657 68.171-27.443 25.446.214 49.8 10.497 67.7 28.584 17.9 18.088 27.927 42.548 27.875 67.996" fill="#ffffff" stroke="#ffffff" stroke-width="7.228911" stroke-linecap="round" stroke-linejoin="round"/><path d="M9460.28 120.436l48.021-39.74-28.862 36.687z" fill="#373e48"/><path d="M9460.318 120.462l52-8.382-35.56 11.981z" fill="#535d6c"/><path d="M9460.318 120.388l31.298 18.952-24.721-10.376z" fill="#939dac"/><path d="M9409.416 120.515l-48.031-39.773 28.863 36.713z" fill="#373e48"/><path d="M9409.461 120.062l-51.994-7.982 35.601 11.699z" fill="#535d6c"/><path d="M9410.128 120.459l-32.799 16.263 25.52-8.266z" fill="#939dac"/><g fill="#3f51b5"><path d="M9468.837 61.063l-29.752 72.256-8.501 21.252 4.251 4.25 12.751-8.501 25.502-85.006z"/><path d="M9400.832 61.063l29.752 72.256 8.501 21.252-4.25 4.25-12.751-8.501-25.502-85.006z"/></g></g><g><path d="M9743.194 109.022c-.698 25.438-11.443 49.592-29.868 67.144-18.426 17.552-43.073 27.112-68.514 26.575-25.442-.537-49.664-11.128-67.332-29.442-17.669-18.313-27.385-42.899-27.01-68.344.375-25.444 10.813-49.733 29.014-67.517 18.201-17.785 42.724-27.657 68.171-27.443 25.446.214 49.8 10.497 67.7 28.584 17.9 18.088 27.927 42.548 27.875 67.996" fill="#ffffff" stroke="#ffffff" stroke-width="7.228911" stroke-linecap="round" stroke-linejoin="round"/><path d="M9672.289 120.458l47.088-41.287-27.934 37.672z" fill="#373e48"/><path d="M9672.32 120.475l51.089-11.286-34.579 13.915z" fill="#535d6c"/><path d="M9672.318 120.391l31.373 18.562-24.734-10.086z" fill="#939dac"/><path d="M9621.402 120.524l-47.098-41.311 27.937 37.691z" fill="#373e48"/><path d="M9621.445 120.124l-51.083-10.935 34.615 13.667z" fill="#535d6c"/><path d="M9622.122 120.461l-32.85 15.914 25.52-8.008z" fill="#939dac"/><g fill="#3f51b5"><path d="M9680.837 61.063l-29.752 72.256-8.501 21.252 4.251 4.25 12.751-8.501 25.502-85.006z"/><path d="M9612.832 61.063l29.752 72.256 8.501 21.252-4.25 4.25-12.751-8.501-25.502-85.006z"/></g></g><g><path d="M9955.194 109.022c-.698 25.438-11.443 49.592-29.868 67.144-18.426 17.552-43.073 27.112-68.514 26.575-25.442-.537-49.664-11.128-67.332-29.442-17.669-18.313-27.385-42.899-27.01-68.344.375-25.444 10.813-49.733 29.014-67.517 18.201-17.785 42.724-27.657 68.171-27.443 25.446.214 49.8 10.497 67.7 28.584 17.9 18.088 27.927 42.548 27.875 67.996" fill="#ffffff" stroke="#ffffff" stroke-width="7.228911" stroke-linecap="round" stroke-linejoin="round"/><path d="M9884.298 120.477l46.291-42.605-27.143 38.51z" fill="#373e48"/><path d="M9884.322 120.488l50.171-14.213-33.591 15.864z" fill="#535d6c"/><path d="M9884.319 120.395l31.49 17.946-24.753-9.626z" fill="#939dac"/><path d="M9833.39 120.532l-46.302-42.622 27.147 38.524z" fill="#373e48"/><path d="M9833.429 120.188l-50.166-13.913 33.623 15.652z" fill="#535d6c"/><path d="M9834.113 120.463l-32.931 15.364 25.519-7.6z" fill="#939dac"/><g fill="#3f51b5"><path d="M9892.837 61.063l-29.752 72.256-8.501 21.252 4.251 4.25 12.751-8.501 25.502-85.006z"/><path d="M9824.832 61.063l29.752 72.256 8.501 21.252-4.25 4.25-12.751-8.501-25.502-85.006z"/></g></g><g><path d="M10167.194 109.022c-.698 25.438-11.443 49.592-29.868 67.144-18.426 17.552-43.073 27.112-68.514 26.575-25.442-.537-49.664-11.128-67.332-29.442-17.669-18.313-27.385-42.899-27.01-68.344.375-25.444 10.813-49.733 29.014-67.517 18.201-17.785 42.724-27.657 68.171-27.443 25.446.214 49.8 10.497 67.7 28.584 17.9 18.088 27.927 42.548 27.875 67.996" fill="#ffffff" stroke="#ffffff" stroke-width="7.228911" stroke-linecap="round" stroke-linejoin="round"/><path d="M10096.305 120.494l45.612-43.731-26.468 39.226z" fill="#373e48"/><path d="M10096.325 120.5l49.32-16.921-32.676 17.668z" fill="#535d6c"/><path d="M10096.32 120.401l31.661 17.046-24.78-8.955z" fill="#939dac"/><path d="M10045.38 120.538l-45.623-43.74 26.473 39.235z" fill="#373e48"/><path d="M10045.414 120.246l-49.316-16.667 32.703 17.488z" fill="#535d6c"/><path d="M10046.1 120.467l-33.049 14.559 25.518-7.004z" fill="#939dac"/><g fill="#3f51b5"><path d="M10104.837 61.063l-29.752 72.256-8.501 21.252 4.251 4.25 12.751-8.501 25.502-85.006z"/><path d="M10036.832 61.063l29.752 72.256 8.501 21.252-4.25 4.25-12.751-8.501-25.502-85.006z"/></g></g><g><path d="M10379.194 109.022c-.698 25.438-11.443 49.592-29.868 67.144-18.426 17.552-43.073 27.112-68.514 26.575-25.442-.537-49.664-11.128-67.332-29.442-17.669-18.313-27.385-42.899-27.01-68.344.375-25.444 10.813-49.733 29.014-67.517 18.201-17.785 42.724-27.657 68.171-27.443 25.446.214 49.8 10.497 67.7 28.584 17.9 18.088 27.927 42.548 27.875 67.996" fill="#ffffff" stroke="#ffffff" stroke-width="7.228911" stroke-linecap="round" stroke-linejoin="round"/><path d="M10308.311 120.508l45.031-44.692-25.89 39.838z" fill="#373e48"/><path d="M10308.327 120.511l48.574-19.302-31.873 19.253z" fill="#535d6c"/><path d="M10308.321 120.41l31.899 15.795-24.818-8.023z" fill="#939dac"/><path d="M10257.371 120.544l-45.042-44.697 25.896 39.844z" fill="#373e48"/><path d="M10257.401 120.297l-48.57-19.088 31.895 19.102z" fill="#535d6c"/><path d="M10258.082 120.473l-33.214 13.441 25.518-6.176z" fill="#939dac"/><g fill="#3f51b5"><path d="M10316.837 61.063l-29.752 72.256-8.501 21.252 4.251 4.25 12.751-8.501 25.502-85.006z"/><path d="M10248.832 61.063l29.752 72.256 8.501 21.252-4.25 4.25-12.751-8.501-25.502-85.006z"/></g></g><g><path d="M10591.194 109.022c-.698 25.438-11.443 49.592-29.868 67.144-18.426 17.552-43.073 27.112-68.514 26.575-25.442-.537-49.664-11.128-67.332-29.442-17.669-18.313-27.385-42.899-27.01-68.344.375-25.444 10.813-49.733 29.014-67.517 18.201-17.785 42.724-27.657 68.171-27.443 25.446.214 49.8 10.497 67.7 28.584 17.9 18.088 27.927 42.548 27.875 67.996" fill="#ffffff" stroke="#ffffff" stroke-width="7.228911" stroke-linecap="round" stroke-linejoin="round"/><path d="M10520.316 120.519l44.536-45.512-25.398 40.361z" fill="#373e48"/><path d="M10520.328 120.52l47.933-21.346-31.183 20.614z" fill="#535d6c"/><path d="M10520.322 120.422l32.215 14.143-24.87-6.792z" fill="#939dac"/><path d="M10469.364 120.548l-44.547-45.512 25.405 40.362z" fill="#373e48"/><path d="M10469.39 120.341l-47.93-21.167 31.202 20.488z" fill="#535d6c"/><path d="M10470.058 120.48l-33.431 11.965 25.516-5.083z" fill="#939dac"/><g fill="#3f51b5"><path d="M10528.837 61.063l-29.752 72.256-8.501 21.252 4.251 4.25 12.751-8.501 25.502-85.006z"/><path d="M10460.832 61.063l29.752 72.256 8.501 21.252-4.25 4.25-12.751-8.501-25.502-85.006z"/></g></g><g><path d="M10803.194 109.022c-.698 25.438-11.443 49.592-29.868 67.144-18.426 17.552-43.073 27.112-68.514 26.575-25.442-.537-49.664-11.128-67.332-29.442-17.669-18.313-27.385-42.899-27.01-68.344.375-25.444 10.813-49.733 29.014-67.517 18.201-17.785 42.724-27.657 68.171-27.443 25.446.214 49.8 10.497 67.7 28.584 17.9 18.088 27.927 42.548 27.875 67.996" fill="#ffffff" stroke="#ffffff" stroke-width="7.228911" stroke-linecap="round" stroke-linejoin="round"/><path d="M10732.32 120.529l44.115-46.209-24.979 40.804z" fill="#373e48"/><path d="M10732.33 120.528l47.385-23.089-30.594 21.775z" fill="#535d6c"/><path d="M10732.323 120.437l32.604 12.105-24.933-5.273z" fill="#939dac"/><path d="M10681.357 120.552l-44.125-46.207 24.986 40.804z" fill="#373e48"/><path d="M10681.381 120.379l-47.384-22.94 30.61 21.67z" fill="#535d6c"/><path d="M10682.028 120.489l-33.699 10.143 25.515-3.734z" fill="#939dac"/><g fill="#3f51b5"><path d="M10740.837 61.063l-29.752 72.256-8.501 21.252 4.251 4.25 12.751-8.501 25.502-85.006z"/><path d="M10672.832 61.063l29.752 72.256 8.501 21.252-4.25 4.25-12.751-8.501-25.502-85.006z"/></g></g><g><path d="M11015.194 109.022c-.698 25.438-11.443 49.592-29.868 67.144-18.426 17.552-43.073 27.112-68.514 26.575-25.442-.537-49.664-11.128-67.332-29.442-17.669-18.313-27.385-42.899-27.01-68.344.375-25.444 10.813-49.733 29.014-67.517 18.201-17.785 42.724-27.657 68.171-27.443 25.446.214 49.8 10.497 67.7 28.584 17.9 18.088 27.927 42.548 27.875 67.996" fill="#ffffff" stroke="#ffffff" stroke-width="7.228911" stroke-linecap="round" stroke-linejoin="round"/><path d="M10944.324 120.538l43.758-46.801-24.624 41.18z" fill="#373e48"/><path d="M10944.331 120.535l46.92-24.573-30.093 22.763z" fill="#535d6c"/><path d="M10944.325 120.453l33.039 9.821-25.003-3.571z" fill="#939dac"/><path d="M10893.352 120.556l-43.767-46.797 24.631 41.179z" fill="#373e48"/><path d="M10893.373 120.411l-46.919-24.449 30.107 22.675z" fill="#535d6c"/><path d="M10893.995 120.498l-33.999 8.102 25.513-2.221z" fill="#939dac"/><g fill="#3f51b5"><path d="M10952.837 61.063l-29.752 72.256-8.501 21.252 4.251 4.25 12.751-8.501 25.502-85.006z"/><path d="M10884.832 61.063l29.752 72.256 8.501 21.252-4.25 4.25-12.751-8.501-25.502-85.006z"/></g></g><g><path d="M11227.194 109.022c-.698 25.438-11.443 49.592-29.868 67.144-18.426 17.552-43.073 27.112-68.514 26.575-25.442-.537-49.664-11.128-67.332-29.442-17.669-18.313-27.385-42.899-27.01-68.344.375-25.444 10.813-49.733 29.014-67.517 18.201-17.785 42.724-27.657 68.171-27.443 25.446.214 49.8 10.497 67.7 28.584 17.9 18.088 27.927 42.548 27.875 67.996" fill="#ffffff" stroke="#ffffff" stroke-width="7.228911" stroke-linecap="round" stroke-linejoin="round"/><path d="M11156.327 120.545l43.457-47.298-24.325 41.497z" fill="#373e48"/><path d="M11156.332 120.541l46.523-25.839-29.666 23.606z" fill="#535d6c"/><path d="M11156.327 120.469l33.478 7.519-25.074-1.855z" fill="#939dac"/><path d="M11105.347 120.559l-43.466-47.293 24.332 41.494z" fill="#373e48"/><path d="M11105.366 120.438l-46.522-25.736 29.677 23.534z" fill="#535d6c"/><path d="M11105.961 120.508l-34.302 6.043 25.512-.696z" fill="#939dac"/><g fill="#3f51b5"><path d="M11164.837 61.063l-29.752 72.256-8.501 21.252 4.251 4.25 12.751-8.501 25.502-85.006z"/><path d="M11096.832 61.063l29.752 72.256 8.501 21.252-4.25 4.25-12.751-8.501-25.502-85.006z"/></g></g><g><path d="M11439.194 109.022c-.698 25.438-11.443 49.592-29.868 67.144-18.426 17.552-43.073 27.112-68.514 26.575-25.442-.537-49.664-11.128-67.332-29.442-17.669-18.313-27.385-42.899-27.01-68.344.375-25.444 10.813-49.733 29.014-67.517 18.201-17.785 42.724-27.657 68.171-27.443 25.446.214 49.8 10.497 67.7 28.584 17.9 18.088 27.927 42.548 27.875 67.996" fill="#ffffff" stroke="#ffffff" stroke-width="7.228911" stroke-linecap="round" stroke-linejoin="round"/><path d="M11368.33 120.551l43.207-47.713-24.077 41.761z" fill="#373e48"/><path d="M11368.333 120.546l46.184-26.919-29.301 24.325z" fill="#535d6c"/><path d="M11368.328 120.484l33.885 5.389-25.14-.267z" fill="#939dac"/><path d="M11317.344 120.561l-43.216-47.706 24.083 41.757z" fill="#373e48"/><path d="M11317.36 120.461l-46.183-26.834 29.31 24.266z" fill="#535d6c"/><path d="M11317.93 120.517l-34.582 4.14 25.511.713z" fill="#939dac"/><g fill="#3f51b5"><path d="M11376.837 61.063l-29.752 72.256-8.501 21.252 4.251 4.25 12.751-8.501 25.502-85.006z"/><path d="M11308.832 61.063l29.752 72.256 8.501 21.252-4.25 4.25-12.751-8.501-25.502-85.006z"/></g></g><g><path d="M11651.194 109.022c-.698 25.438-11.443 49.592-29.868 67.144-18.426 17.552-43.073 27.112-68.514 26.575-25.442-.537-49.664-11.128-67.332-29.442-17.669-18.313-27.385-42.899-27.01-68.344.375-25.444 10.813-49.733 29.014-67.517 18.201-17.785 42.724-27.657 68.171-27.443 25.446.214 49.8 10.497 67.7 28.584 17.9 18.088 27.927 42.548 27.875 67.996" fill="#ffffff" stroke="#ffffff" stroke-width="7.228911" stroke-linecap="round" stroke-linejoin="round"/><path d="M11580.332 120.556l43.002-48.052-23.873 41.977z" fill="#373e48"/><path d="M11580.334 120.55l45.894-27.841-28.99 24.939z" fill="#535d6c"/><path d="M11580.33 120.498l34.241 3.516-25.197 1.128z" fill="#939dac"/><path d="M11529.341 120.563l-43.01-48.045 23.879 41.973z" fill="#373e48"/><path d="M11529.355 120.481l-45.894-27.772 28.998 24.891z" fill="#535d6c"/><path d="M11529.903 120.525l-34.828 2.466 25.509 1.953z" fill="#939dac"/><g fill="#3f51b5"><path d="M11588.837 61.063l-29.752 72.256-8.501 21.252 4.251 4.25 12.751-8.501 25.502-85.006z"/><path d="M11520.832 61.063l29.752 72.256 8.501 21.252-4.25 4.25-12.751-8.501-25.502-85.006z"/></g></g><g><path d="M11863.194 109.022c-.698 25.438-11.443 49.592-29.868 67.144-18.426 17.552-43.073 27.112-68.514 26.575-25.442-.537-49.664-11.128-67.332-29.442-17.669-18.313-27.385-42.899-27.01-68.344.375-25.444 10.813-49.733 29.014-67.517 18.201-17.785 42.724-27.657 68.171-27.443 25.446.214 49.8 10.497 67.7 28.584 17.9 18.088 27.927 42.548 27.875 67.996" fill="#ffffff" stroke="#ffffff" stroke-width="7.228911" stroke-linecap="round" stroke-linejoin="round"/><path d="M11792.334 120.56l42.837-48.325-23.709 42.15z" fill="#373e48"/><path d="M11792.334 120.553l45.648-28.629-28.724 25.465z" fill="#535d6c"/><path d="M11792.331 120.509l34.548 1.908-25.247 2.327z" fill="#939dac"/><path d="M11741.338 120.565l-42.844-48.318 23.715 42.146z" fill="#373e48"/><path d="M11741.351 120.498l-45.648-28.574 28.731 25.426z" fill="#535d6c"/><path d="M11741.879 120.532l-35.039 1.029 25.508 3.017z" fill="#939dac"/><g fill="#3f51b5"><path d="M11800.837 61.063l-29.752 72.256-8.501 21.252 4.251 4.25 12.751-8.501 25.502-85.006z"/><path d="M11732.832 61.063l29.752 72.256 8.501 21.252-4.25 4.25-12.751-8.501-25.502-85.006z"/></g></g><g><path d="M12075.194 109.022c-.698 25.438-11.443 49.592-29.868 67.144-18.426 17.552-43.073 27.112-68.514 26.575-25.442-.537-49.664-11.128-67.332-29.442-17.669-18.313-27.385-42.899-27.01-68.344.375-25.444 10.813-49.733 29.014-67.517 18.201-17.785 42.724-27.657 68.171-27.443 25.446.214 49.8 10.497 67.7 28.584 17.9 18.088 27.927 42.548 27.875 67.996" fill="#ffffff" stroke="#ffffff" stroke-width="7.228911" stroke-linecap="round" stroke-linejoin="round"/><path d="M12004.335 120.563l42.709-48.537-23.582 42.285z" fill="#373e48"/><path d="M12004.335 120.556l45.437-29.299-28.498 25.911z" fill="#535d6c"/><path d="M12004.332 120.519l34.81.537-25.289 3.348z" fill="#939dac"/><path d="M11953.336 120.566l-42.714-48.531 23.586 42.282z" fill="#373e48"/><path d="M11953.347 120.512l-45.437-29.255 28.503 25.88z" fill="#535d6c"/><path d="M11953.859 120.538l-35.219-.197 25.507 3.925z" fill="#939dac"/><g fill="#3f51b5"><path d="M12012.837 61.063l-29.752 72.256-8.501 21.252 4.251 4.25 12.751-8.501 25.502-85.006z"/><path d="M11944.832 61.063l29.752 72.256 8.501 21.252-4.25 4.25-12.751-8.501-25.502-85.006z"/></g></g><g><path d="M12287.194 109.022c-.698 25.438-11.443 49.592-29.868 67.144-18.426 17.552-43.073 27.112-68.514 26.575-25.442-.537-49.664-11.128-67.332-29.442-17.669-18.313-27.385-42.899-27.01-68.344.375-25.444 10.813-49.733 29.014-67.517 18.201-17.785 42.724-27.657 68.171-27.443 25.446.214 49.8 10.497 67.7 28.584 17.9 18.088 27.927 42.548 27.875 67.996" fill="#ffffff" stroke="#ffffff" stroke-width="7.228911" stroke-linecap="round" stroke-linejoin="round"/><path d="M12216.336 120.565l42.615-48.694-23.488 42.386z" fill="#373e48"/><path d="M12216.335 120.559l45.259-29.868-28.306 26.289z" fill="#535d6c"/><path d="M12216.333 120.527l35.032-.63-25.325 4.218z" fill="#939dac"/><path d="M12165.335 120.567l-42.619-48.689 23.491 42.382z" fill="#373e48"/><path d="M12165.344 120.525l-45.259-29.834 28.31 26.265z" fill="#535d6c"/><path d="M12165.842 120.543l-35.373-1.24 25.506 4.697z" fill="#939dac"/><g fill="#3f51b5"><path d="M12224.837 61.063l-29.752 72.256-8.501 21.252 4.251 4.25 12.751-8.501 25.502-85.006z"/><path d="M12156.832 61.063l29.752 72.256 8.501 21.252-4.25 4.25-12.751-8.501-25.502-85.006z"/></g></g><g><path d="M12499.194 109.022c-.698 25.438-11.443 49.592-29.868 67.144-18.426 17.552-43.073 27.112-68.514 26.575-25.442-.537-49.664-11.128-67.332-29.442-17.669-18.313-27.385-42.899-27.01-68.344.375-25.444 10.813-49.733 29.014-67.517 18.201-17.785 42.724-27.657 68.171-27.443 25.446.214 49.8 10.497 67.7 28.584 17.9 18.088 27.927 42.548 27.875 67.996" fill="#ffffff" stroke="#ffffff" stroke-width="7.228911" stroke-linecap="round" stroke-linejoin="round"/><path d="M12428.337 120.567l42.55-48.801-23.424 42.453z" fill="#373e48"/><path d="M12428.336 120.561l45.108-30.347-28.144 26.609z" fill="#535d6c"/><path d="M12428.333 120.534l35.223-1.625-25.356 4.96z" fill="#939dac"/><path d="M12377.334 120.568l-42.553-48.797 23.425 42.45z" fill="#373e48"/><path d="M12377.341 120.535l-45.109-30.321 28.148 26.59z" fill="#535d6c"/><path d="M12377.827 120.548l-35.503-2.13 25.505 5.356z" fill="#939dac"/><g fill="#3f51b5"><path d="M12436.837 61.063l-29.752 72.256-8.501 21.252 4.251 4.25 12.751-8.501 25.502-85.006z"/><path d="M12368.832 61.063l29.752 72.256 8.501 21.252-4.25 4.25-12.751-8.501-25.502-85.006z"/></g></g><g><path d="M12711.194 109.022c-.698 25.438-11.443 49.592-29.868 67.144-18.426 17.552-43.073 27.112-68.514 26.575-25.442-.537-49.664-11.128-67.332-29.442-17.669-18.313-27.385-42.899-27.01-68.344.375-25.444 10.813-49.733 29.014-67.517 18.201-17.785 42.724-27.657 68.171-27.443 25.446.214 49.8 10.497 67.7 28.584 17.9 18.088 27.927 42.548 27.875 67.996" fill="#ffffff" stroke="#ffffff" stroke-width="7.228911" stroke-linecap="round" stroke-linejoin="round"/><path d="M12640.337 120.568l42.514-48.861-23.388 42.491z" fill="#373e48"/><path d="M12640.336 120.563l44.983-30.746-28.009 26.874z" fill="#535d6c"/><path d="M12640.334 120.54l35.384-2.475-25.382 5.594z" fill="#939dac"/><path d="M12589.333 120.568l-42.515-48.859 23.388 42.49z" fill="#373e48"/><path d="M12589.339 120.544l-44.984-30.727 28.012 26.861z" fill="#535d6c"/><path d="M12589.815 120.551l-35.615-2.889 25.504 5.919z" fill="#939dac"/><g fill="#3f51b5"><path d="M12648.837 61.063l-29.752 72.256-8.501 21.252 4.251 4.25 12.751-8.501 25.502-85.006z"/><path d="M12580.832 61.063l29.752 72.256 8.501 21.252-4.25 4.25-12.751-8.501-25.502-85.006z"/></g></g><g><path d="M12923.194 109.022c-.698 25.438-11.443 49.592-29.868 67.144-18.426 17.552-43.073 27.112-68.514 26.575-25.442-.537-49.664-11.128-67.332-29.442-17.669-18.313-27.385-42.899-27.01-68.344.375-25.444 10.813-49.733 29.014-67.517 18.201-17.785 42.724-27.657 68.171-27.443 25.446.214 49.8 10.497 67.7 28.584 17.9 18.088 27.927 42.548 27.875 67.996" fill="#ffffff" stroke="#ffffff" stroke-width="7.228911" stroke-linecap="round" stroke-linejoin="round"/><path d="M12852.337 120.568l42.503-48.879-23.377 42.503z" fill="#373e48"/><path d="M12852.336 120.564l44.881-31.073-27.899 27.092z" fill="#535d6c"/><path d="M12852.335 120.545l35.522-3.2-25.404 6.134z" fill="#939dac"/><path d="M12801.333 120.568l-42.503-48.879 23.376 42.503z" fill="#373e48"/><path d="M12801.337 120.551l-44.881-31.06 27.901 27.083z" fill="#535d6c"/><path d="M12801.804 120.554l-35.71-3.538 25.504 6.399z" fill="#939dac"/><g fill="#3f51b5"><path d="M12860.837 61.063l-29.752 72.256-8.501 21.252 4.251 4.25 12.751-8.501 25.502-85.006z"/><path d="M12792.832 61.063l29.752 72.256 8.501 21.252-4.25 4.25-12.751-8.501-25.502-85.006z"/></g></g><g><path d="M13135.194 109.022c-.698 25.438-11.443 49.592-29.868 67.144-18.426 17.552-43.073 27.112-68.514 26.575-25.442-.537-49.664-11.128-67.332-29.442-17.669-18.313-27.385-42.899-27.01-68.344.375-25.444 10.813-49.733 29.014-67.517 18.201-17.785 42.724-27.657 68.171-27.443 25.446.214 49.8 10.497 67.7 28.584 17.9 18.088 27.927 42.548 27.875 67.996" fill="#ffffff" stroke="#ffffff" stroke-width="7.228911" stroke-linecap="round" stroke-linejoin="round"/><path d="M13064.337 120.568l42.503-48.879-23.377 42.503z" fill="#373e48"/><path d="M13064.337 120.566l44.797-31.337-27.809 27.267z" fill="#535d6c"/><path d="M13064.335 120.55l35.641-3.82-25.424 6.596z" fill="#939dac"/><path d="M13013.333 120.568l-42.503-48.879 23.376 42.503z" fill="#373e48"/><path d="M13013.336 120.556l-44.799-31.327 27.812 27.261z" fill="#535d6c"/><path d="M13013.795 120.557l-35.792-4.092 25.504 6.81z" fill="#939dac"/><g fill="#3f51b5"><path d="M13072.837 61.063l-29.752 72.256-8.501 21.252 4.251 4.25 12.751-8.501 25.502-85.006z"/><path d="M13004.832 61.063l29.752 72.256 8.501 21.252-4.25 4.25-12.751-8.501-25.502-85.006z"/></g></g><g><path d="M13347.194 109.022c-.698 25.438-11.443 49.592-29.868 67.144-18.426 17.552-43.073 27.112-68.514 26.575-25.442-.537-49.664-11.128-67.332-29.442-17.669-18.313-27.385-42.899-27.01-68.344.375-25.444 10.813-49.733 29.014-67.517 18.201-17.785 42.724-27.657 68.171-27.443 25.446.214 49.8 10.497 67.7 28.584 17.9 18.088 27.927 42.548 27.875 67.996" fill="#ffffff" stroke="#ffffff" stroke-width="7.228911" stroke-linecap="round" stroke-linejoin="round"/><path d="M13276.337 120.568l42.503-48.879-23.377 42.503z" fill="#373e48"/><path d="M13276.337 120.566l44.733-31.541-27.74 27.404z" fill="#535d6c"/><path d="M13276.335 120.554l35.742-4.348-25.44 6.989z" fill="#939dac"/><path d="M13225.333 120.568l-42.503-48.879 23.376 42.503z" fill="#373e48"/><path d="M13225.335 120.561l-44.735-31.536 27.743 27.4z" fill="#535d6c"/><path d="M13225.788 120.559l-35.862-4.563 25.504 7.158z" fill="#939dac"/><g fill="#3f51b5"><path d="M13284.837 61.063l-29.752 72.256-8.501 21.252 4.251 4.25 12.751-8.501 25.502-85.006z"/><path d="M13216.832 61.063l29.752 72.256 8.501 21.252-4.25 4.25-12.751-8.501-25.502-85.006z"/></g></g><g><path d="M13559.194 109.022c-.698 25.438-11.443 49.592-29.868 67.144-18.426 17.552-43.073 27.112-68.514 26.575-25.442-.537-49.664-11.128-67.332-29.442-17.669-18.313-27.385-42.899-27.01-68.344.375-25.444 10.813-49.733 29.014-67.517 18.201-17.785 42.724-27.657 68.171-27.443 25.446.214 49.8 10.497 67.7 28.584 17.9 18.088 27.927 42.548 27.875 67.996" fill="#ffffff" stroke="#ffffff" stroke-width="7.228911" stroke-linecap="round" stroke-linejoin="round"/><path d="M13488.337 120.568l42.503-48.879-23.377 42.503z" fill="#373e48"/><path d="M13488.337 120.567l44.686-31.694-27.69 27.506z" fill="#535d6c"/><path d="M13488.336 120.557l35.826-4.795-25.453 7.322z" fill="#939dac"/><path d="M13437.333 120.568l-42.503-48.879 23.376 42.503z" fill="#373e48"/><path d="M13437.334 120.564l-44.687-31.691 27.691 27.503z" fill="#535d6c"/><path d="M13437.781 120.561l-35.92-4.963 25.503 7.455z" fill="#939dac"/><g fill="#3f51b5"><path d="M13496.837 61.063l-29.752 72.256-8.501 21.252 4.251 4.25 12.751-8.501 25.502-85.006z"/><path d="M13428.832 61.063l29.752 72.256 8.501 21.252-4.25 4.25-12.751-8.501-25.502-85.006z"/></g></g><g><path d="M13771.194 109.022c-.698 25.438-11.443 49.592-29.868 67.144-18.426 17.552-43.073 27.112-68.514 26.575-25.442-.537-49.664-11.128-67.332-29.442-17.669-18.313-27.385-42.899-27.01-68.344.375-25.444 10.813-49.733 29.014-67.517 18.201-17.785 42.724-27.657 68.171-27.443 25.446.214 49.8 10.497 67.7 28.584 17.9 18.088 27.927 42.548 27.875 67.996" fill="#ffffff" stroke="#ffffff" stroke-width="7.228911" stroke-linecap="round" stroke-linejoin="round"/><path d="M13700.337 120.568l42.503-48.879-23.377 42.503z" fill="#373e48"/><path d="M13700.337 120.568l44.653-31.799-27.654 27.575z" fill="#535d6c"/><path d="M13700.336 120.559l35.898-5.171-25.464 7.603z" fill="#939dac"/><path d="M13649.333 120.568l-42.503-48.879 23.376 42.503z" fill="#373e48"/><path d="M13649.333 120.566l-44.653-31.797 27.654 27.574z" fill="#535d6c"/><path d="M13649.776 120.563l-35.97-5.3 25.503 7.704z" fill="#939dac"/><g fill="#3f51b5"><path d="M13708.837 61.063l-29.752 72.256-8.501 21.252 4.251 4.25 12.751-8.501 25.502-85.006z"/><path d="M13640.832 61.063l29.752 72.256 8.501 21.252-4.25 4.25-12.751-8.501-25.502-85.006z"/></g></g><g><path d="M13983.194 109.022c-.698 25.438-11.443 49.592-29.868 67.144-18.426 17.552-43.073 27.112-68.514 26.575-25.442-.537-49.664-11.128-67.332-29.442-17.669-18.313-27.385-42.899-27.01-68.344.375-25.444 10.813-49.733 29.014-67.517 18.201-17.785 42.724-27.657 68.171-27.443 25.446.214 49.8 10.497 67.7 28.584 17.9 18.088 27.927 42.548 27.875 67.996" fill="#ffffff" stroke="#ffffff" stroke-width="7.228911" stroke-linecap="round" stroke-linejoin="round"/><path d="M13912.337 120.568l42.503-48.879-23.377 42.503z" fill="#373e48"/><path d="M13912.337 120.568l44.634-31.859-27.633 27.615z" fill="#535d6c"/><path d="M13912.336 120.562l35.958-5.486-25.474 7.838z" fill="#939dac"/><path d="M13861.333 120.568l-42.503-48.879 23.376 42.503z" fill="#373e48"/><path d="M13861.333 120.568l-44.635-31.859 27.635 27.615z" fill="#535d6c"/><path d="M13861.771 120.564l-36.011-5.58 25.503 7.912z" fill="#939dac"/><g fill="#3f51b5"><path d="M13920.837 61.063l-29.752 72.256-8.501 21.252 4.251 4.25 12.751-8.501 25.502-85.006z"/><path d="M13852.832 61.063l29.752 72.256 8.501 21.252-4.25 4.25-12.751-8.501-25.502-85.006z"/></g></g><g><path d="M14195.194 109.022c-.698 25.438-11.443 49.592-29.868 67.144-18.426 17.552-43.073 27.112-68.514 26.575-25.442-.537-49.664-11.128-67.332-29.442-17.669-18.313-27.385-42.899-27.01-68.344.375-25.444 10.813-49.733 29.014-67.517 18.201-17.785 42.724-27.657 68.171-27.443 25.446.214 49.8 10.497 67.7 28.584 17.9 18.088 27.927 42.548 27.875 67.996" fill="#ffffff" stroke="#ffffff" stroke-width="7.228911" stroke-linecap="round" stroke-linejoin="round"/><path d="M14124.337 120.568l42.503-48.879-23.377 42.503z" fill="#373e48"/><path d="M14124.337 120.568l44.628-31.878-27.627 27.628z" fill="#535d6c"/><path d="M14124.337 120.563l36.007-5.742-25.483 8.029z" fill="#939dac"/><path d="M14073.333 120.568l-42.503-48.879 23.376 42.503z" fill="#373e48"/><path d="M14073.333 120.568l-44.629-31.878 27.628 27.628z" fill="#535d6c"/><path d="M14073.767 120.565l-36.045-5.81 25.503 8.082z" fill="#939dac"/><g fill="#3f51b5"><path d="M14132.837 61.063l-29.752 72.256-8.501 21.252 4.251 4.25 12.751-8.501 25.502-85.006z"/><path d="M14064.832 61.063l29.752 72.256 8.501 21.252-4.25 4.25-12.751-8.501-25.502-85.006z"/></g></g><g><path d="M14407.194 109.022c-.698 25.438-11.443 49.592-29.868 67.144-18.426 17.552-43.073 27.112-68.514 26.575-25.442-.537-49.664-11.128-67.332-29.442-17.669-18.313-27.385-42.899-27.01-68.344.375-25.444 10.813-49.733 29.014-67.517 18.201-17.785 42.724-27.657 68.171-27.443 25.446.214 49.8 10.497 67.7 28.584 17.9 18.088 27.927 42.548 27.875 67.996" fill="#ffffff" stroke="#ffffff" stroke-width="7.228911" stroke-linecap="round" stroke-linejoin="round"/><path d="M14336.337 120.568l42.503-48.879-23.377 42.503z" fill="#373e48"/><path d="M14336.337 120.568l44.628-31.878-27.627 27.628z" fill="#535d6c"/><path d="M14336.337 120.565l36.046-5.95-25.488 8.183z" fill="#939dac"/><path d="M14285.333 120.568l-42.503-48.879 23.376 42.503z" fill="#373e48"/><path d="M14285.333 120.568l-44.629-31.878 27.628 27.628z" fill="#535d6c"/><path d="M14285.764 120.566l-36.072-5.995 25.503 8.219z" fill="#939dac"/><g fill="#3f51b5"><path d="M14344.837 61.063l-29.752 72.256-8.501 21.252 4.251 4.25 12.751-8.501 25.502-85.006z"/><path d="M14276.832 61.063l29.752 72.256 8.501 21.252-4.25 4.25-12.751-8.501-25.502-85.006z"/></g></g><g><path d="M14619.194 109.022c-.698 25.438-11.443 49.592-29.868 67.144-18.426 17.552-43.073 27.112-68.514 26.575-25.442-.537-49.664-11.128-67.332-29.442-17.669-18.313-27.385-42.899-27.01-68.344.375-25.444 10.813-49.733 29.014-67.517 18.201-17.785 42.724-27.657 68.171-27.443 25.446.214 49.8 10.497 67.7 28.584 17.9 18.088 27.927 42.548 27.875 67.996" fill="#ffffff" stroke="#ffffff" stroke-width="7.228911" stroke-linecap="round" stroke-linejoin="round"/><path d="M14548.337 120.568l42.503-48.879-23.377 42.503z" fill="#373e48"/><path d="M14548.337 120.568l44.628-31.878-27.627 27.628z" fill="#535d6c"/><path d="M14548.337 120.566l36.077-6.111-25.493 8.303z" fill="#939dac"/><path d="M14497.333 120.568l-42.503-48.879 23.376 42.503z" fill="#373e48"/><path d="M14497.333 120.568l-44.629-31.878 27.628 27.628z" fill="#535d6c"/><path d="M14497.762 120.567l-36.093-6.14 25.502 8.326z" fill="#939dac"/><g fill="#3f51b5"><path d="M14556.837 61.063l-29.752 72.256-8.501 21.252 4.251 4.25 12.751-8.501 25.502-85.006z"/><path d="M14488.832 61.063l29.752 72.256 8.501 21.252-4.25 4.25-12.751-8.501-25.502-85.006z"/></g></g><g><path d="M14831.194 109.022c-.698 25.438-11.443 49.592-29.868 67.144-18.426 17.552-43.073 27.112-68.514 26.575-25.442-.537-49.664-11.128-67.332-29.442-17.669-18.313-27.385-42.899-27.01-68.344.375-25.444 10.813-49.733 29.014-67.517 18.201-17.785 42.724-27.657 68.171-27.443 25.446.214 49.8 10.497 67.7 28.584 17.9 18.088 27.927 42.548 27.875 67.996" fill="#ffffff" stroke="#ffffff" stroke-width="7.228911" stroke-linecap="round" stroke-linejoin="round"/><path d="M14760.337 120.568l42.503-48.879-23.377 42.503z" fill="#373e48"/><path d="M14760.337 120.568l44.628-31.878-27.627 27.628z" fill="#535d6c"/><path d="M14760.337 120.567l36.1-6.231-25.497 8.393z" fill="#939dac"/><path d="M14709.333 120.568l-42.503-48.879 23.376 42.503z" fill="#373e48"/><path d="M14709.333 120.568l-44.629-31.878 27.628 27.628z" fill="#535d6c"/><path d="M14709.76 120.567l-36.109-6.246 25.502 8.405z" fill="#939dac"/><g fill="#3f51b5"><path d="M14768.837 61.063l-29.752 72.256-8.501 21.252 4.251 4.25 12.751-8.501 25.502-85.006z"/><path d="M14700.832 61.063l29.752 72.256 8.501 21.252-4.25 4.25-12.751-8.501-25.502-85.006z"/></g></g><g><path d="M15043.194 109.022c-.698 25.438-11.443 49.592-29.868 67.144-18.426 17.552-43.073 27.112-68.514 26.575-25.442-.537-49.664-11.128-67.332-29.442-17.669-18.313-27.385-42.899-27.01-68.344.375-25.444 10.813-49.733 29.014-67.517 18.201-17.785 42.724-27.657 68.171-27.443 25.446.214 49.8 10.497 67.7 28.584 17.9 18.088 27.927 42.548 27.875 67.996" fill="#ffffff" stroke="#ffffff" stroke-width="7.228911" stroke-linecap="round" stroke-linejoin="round"/><path d="M14972.337 120.568l42.503-48.879-23.377 42.503z" fill="#373e48"/><path d="M14972.337 120.568l44.628-31.878-27.627 27.628z" fill="#535d6c"/><path d="M14972.337 120.568l36.116-6.314-25.5 8.454z" fill="#939dac"/><path d="M14921.333 120.568l-42.503-48.879 23.376 42.503z" fill="#373e48"/><path d="M14921.333 120.568l-44.629-31.878 27.628 27.628z" fill="#535d6c"/><path d="M14921.759 120.568l-36.12-6.32 25.502 8.459z" fill="#939dac"/><g fill="#3f51b5"><path d="M14980.837 61.063l-29.752 72.256-8.501 21.252 4.251 4.25 12.751-8.501 25.502-85.006z"/><path d="M14912.832 61.063l29.752 72.256 8.501 21.252-4.25 4.25-12.751-8.501-25.502-85.006z"/></g></g><g><path d="M15255.194 109.022c-.698 25.438-11.443 49.592-29.868 67.144-18.426 17.552-43.073 27.112-68.514 26.575-25.442-.537-49.664-11.128-67.332-29.442-17.669-18.313-27.385-42.899-27.01-68.344.375-25.444 10.813-49.733 29.014-67.517 18.201-17.785 42.724-27.657 68.171-27.443 25.446.214 49.8 10.497 67.7 28.584 17.9 18.088 27.927 42.548 27.875 67.996" fill="#ffffff" stroke="#ffffff" stroke-width="7.228911" stroke-linecap="round" stroke-linejoin="round"/><path d="M15184.337 120.568l42.503-48.879-23.377 42.503z" fill="#373e48"/><path d="M15184.337 120.568l44.628-31.878-27.627 27.628z" fill="#535d6c"/><path d="M15184.337 120.568l36.125-6.361-25.501 8.49z" fill="#939dac"/><path d="M15133.333 120.568l-42.503-48.879 23.376 42.503z" fill="#373e48"/><path d="M15133.333 120.568l-44.629-31.878 27.628 27.628z" fill="#535d6c"/><path d="M15133.758 120.568l-36.126-6.362 25.502 8.49z" fill="#939dac"/><g fill="#3f51b5"><path d="M15192.837 61.063l-29.752 72.256-8.501 21.252 4.251 4.25 12.751-8.501 25.502-85.006z"/><path d="M15124.832 61.063l29.752 72.256 8.501 21.252-4.25 4.25-12.751-8.501-25.502-85.006z"/></g></g><g><path d="M15467.194 109.022c-.698 25.438-11.443 49.592-29.868 67.144-18.426 17.552-43.073 27.112-68.514 26.575-25.442-.537-49.664-11.128-67.332-29.442-17.669-18.313-27.385-42.899-27.01-68.344.375-25.444 10.813-49.733 29.014-67.517 18.201-17.785 42.724-27.657 68.171-27.443 25.446.214 49.8 10.497 67.7 28.584 17.9 18.088 27.927 42.548 27.875 67.996" fill="#ffffff" stroke="#ffffff" stroke-width="7.228911" stroke-linecap="round" stroke-linejoin="round"/><path d="M15396.337 120.568l42.503-48.879-23.377 42.503z" fill="#373e48"/><path d="M15396.337 120.568l44.628-31.878-27.627 27.628z" fill="#535d6c"/><path d="M15396.337 120.568l36.128-6.376-25.502 8.501z" fill="#939dac"/><path d="M15345.333 120.568l-42.503-48.879 23.376 42.503z" fill="#373e48"/><path d="M15345.333 120.568l-44.629-31.878 27.628 27.628z" fill="#535d6c"/><path d="M15345.758 120.568l-36.128-6.376 25.502 8.501z" fill="#939dac"/><g fill="#3f51b5"><path d="M15404.837 61.063l-29.752 72.256-8.501 21.252 4.251 4.25 12.751-8.501 25.502-85.006z"/><path d="M15336.832 61.063l29.752 72.256 8.501 21.252-4.25 4.25-12.751-8.501-25.502-85.006z"/></g></g></svg>